<?xml version="1.0" encoding="utf-8" standalone="yes"?>
<!DOCTYPE svg PUBLIC "-//W3C//DTD SVG 1.1//EN" "http://www.w3.org/Graphics/SVG/1.1/DTD/svg11.dtd">
<svg width="744" height="384" viewBox="0 0 744 384" style="fill:none;stroke:none;fill-rule:evenodd;clip-rule:evenodd;stroke-linecap:round;stroke-linejoin:round;stroke-miterlimit:1.5;" version="1.1" xmlns="http://www.w3.org/2000/svg" xmlns:xlink="http://www.w3.org/1999/xlink"><style id="fontImports">@import url("https://fonts.googleapis.com/css2?family=Roboto:wght@400;700&amp;display=block");</style><g id="items" style="isolation: isolate"><g id="blend" style="mix-blend-mode:normal"><g id="g-root--1.Vector_sy_250vpu02ia4-fill" data-item-order="999978405" data-item-id="-1.Vector_sy_250vpu02ia4" data-item-class="Part Stroke ColorStrokeGray" data-item-index="-1" data-renderer-id="0" transform="translate(362, 134)"></g><g id="g-root--1.Vector_sy_250vpu02ia4-fill" data-item-order="999978405" data-item-id="-1.Vector_sy_250vpu02ia4" data-item-class="Part Stroke ColorStrokeGray" data-item-index="-1" data-renderer-id="0" transform="translate(362, 134)"></g><g id="g-root--1.cu_sy_250vpu02ia5-fill" data-item-order="999978407" data-item-id="-1.cu_sy_250vpu02ia5" data-item-class="Part Stroke ColorStrokeGray" data-item-index="-1" data-renderer-id="0" transform="translate(362, 326)"></g><g id="g-root--1.cu_sy_250vpu02ia5-fill" data-item-order="999978407" data-item-id="-1.cu_sy_250vpu02ia5" data-item-class="Part Stroke ColorStrokeGray" data-item-index="-1" data-renderer-id="0" transform="translate(362, 326)"></g><g id="g-root-3.cr-big_cr_1unfkqdu02ivc-fill" data-item-order="999978408" data-item-id="3.cr-big_cr_1unfkqdu02ivc" data-item-class="Shape Stroke Fill Part Indexed ColorStrokeGray" data-item-index="3" data-renderer-id="0" transform="translate(326, 254)"><g id="3.cr-big_cr_1unfkqdu02ivc-fill" stroke="none" fill="#de9ffb"><g><path d="M 10 46C 10 65.882251 26.117749 82 46 82C 65.882251 82 82 65.882251 82 46C 82 26.117749 65.882251 10 46 10C 26.117749 10 10 26.117749 10 46"></path></g></g></g><g id="g-root-3.cr-big_cr_1unfkqdu02ivc-fill" data-item-order="999978408" data-item-id="3.cr-big_cr_1unfkqdu02ivc" data-item-class="Shape Stroke Fill Part Indexed ColorStrokeGray" data-item-index="3" data-renderer-id="0" transform="translate(326, 254)"><g id="3.cr-big_cr_1unfkqdu02ivc-fill" stroke="none" fill="#de9ffb"><g><path d="M 10 46C 10 65.882251 26.117749 82 46 82C 65.882251 82 82 65.882251 82 46C 82 26.117749 65.882251 10 46 10C 26.117749 10 10 26.117749 10 46"></path></g></g></g><g id="g-root-2.cr-big_cr_1unfkqdu02ivb-fill" data-item-order="999978410" data-item-id="2.cr-big_cr_1unfkqdu02ivb" data-item-class="Shape Stroke Fill Part Indexed ColorStrokeGray" data-item-index="2" data-renderer-id="0" transform="translate(326, 158)"><g id="2.cr-big_cr_1unfkqdu02ivb-fill" stroke="none" fill="#b179ca"><g><path d="M 10 46C 10 65.882251 26.117749 82 46 82C 65.882251 82 82 65.882251 82 46C 82 26.117749 65.882251 10 46 10C 26.117749 10 10 26.117749 10 46"></path></g></g></g><g id="g-root-2.cr-big_cr_1unfkqdu02ivb-fill" data-item-order="999978410" data-item-id="2.cr-big_cr_1unfkqdu02ivb" data-item-class="Shape Stroke Fill Part Indexed ColorStrokeGray" data-item-index="2" data-renderer-id="0" transform="translate(326, 158)"><g id="2.cr-big_cr_1unfkqdu02ivb-fill" stroke="none" fill="#b179ca"><g><path d="M 10 46C 10 65.882251 26.117749 82 46 82C 65.882251 82 82 65.882251 82 46C 82 26.117749 65.882251 10 46 10C 26.117749 10 10 26.117749 10 46"></path></g></g></g><g id="g-root-1.cr-big_cr_250vpu02ia6-fill" data-item-order="999978412" data-item-id="1.cr-big_cr_250vpu02ia6" data-item-class="Shape Stroke Fill Part Indexed Indexed_1 ColorStrokeGray" data-item-index="1" data-renderer-id="0" transform="translate(326, 62)"><g id="1.cr-big_cr_250vpu02ia6-fill" stroke="none" fill="#83539a"><g><path d="M 10 46C 10 65.882251 26.117749 82 46 82C 65.882251 82 82 65.882251 82 46C 82 26.117749 65.882251 10 46 10C 26.117749 10 10 26.117749 10 46"></path></g></g></g><g id="g-root-1.cr-big_cr_250vpu02ia6-fill" data-item-order="999978412" data-item-id="1.cr-big_cr_250vpu02ia6" data-item-class="Shape Stroke Fill Part Indexed Indexed_1 ColorStrokeGray" data-item-index="1" data-renderer-id="0" transform="translate(326, 62)"><g id="1.cr-big_cr_250vpu02ia6-fill" stroke="none" fill="#83539a"><g><path d="M 10 46C 10 65.882251 26.117749 82 46 82C 65.882251 82 82 65.882251 82 46C 82 26.117749 65.882251 10 46 10C 26.117749 10 10 26.117749 10 46"></path></g></g></g><g id="g-root-tx_abasilei_141512tu02ivg-fill" data-item-order="1000000000" data-item-id="tx_abasilei_141512tu02ivg" data-item-class="Label Stroke Indexed Indexed_1 ColorStrokeGray" data-item-index="1" data-renderer-id="0" transform="translate(26, 122)"><g id="tx_abasilei_141512tu02ivg-fill" stroke="none" fill="#8e8e8e"><g><text style="font: 20px Roboto, sans-serif; white-space: pre;" font-weight="20px" font-size="Roboto," font-family="sans-serif"><tspan x="12.38" y="34" dominant-baseline="ideographic">A Basileia I estabeleceu regras </tspan><tspan x="115.45" y="58" dominant-baseline="ideographic">mínimas de capital</tspan></text></g></g></g><g id="g-root-tx_abasilei_141512tu02ivg-fill" data-item-order="1000000000" data-item-id="tx_abasilei_141512tu02ivg" data-item-class="Label Stroke Indexed Indexed_1 ColorStrokeGray" data-item-index="1" data-renderer-id="0" transform="translate(26, 122)"><g id="tx_abasilei_141512tu02ivg-fill" stroke="none" fill="#8e8e8e"><g><text style="font: 20px Roboto, sans-serif; white-space: pre;" font-weight="20px" font-size="Roboto," font-family="sans-serif"><tspan x="12.38" y="34" dominant-baseline="ideographic">A Basileia I estabeleceu regras </tspan><tspan x="115.45" y="58" dominant-baseline="ideographic">mínimas de capital</tspan></text></g></g></g><g id="g-root-1_1q6zlitu0f75s-fill" data-item-order="1000000000" data-item-id="1_1q6zlitu0f75s" data-item-class="Icon Stroke Indexed Indexed_1 InsideFill InsideColorFill" data-item-index="1" data-renderer-id="0" transform="translate(338, 74)"></g><g id="g-root-1_1q6zlitu0f75s-fill" data-item-order="1000000000" data-item-id="1_1q6zlitu0f75s" data-item-class="Icon Stroke Indexed Indexed_1 InsideFill InsideColorFill" data-item-index="1" data-renderer-id="0" transform="translate(338, 74)"></g><g id="g-root-shie_quobedu0864t-fill" data-item-order="1000000000" data-item-id="shie_quobedu0864t" data-item-class="Icon Stroke Indexed InsideFill InsideColorFill" data-item-index="2" data-renderer-id="0" transform="translate(338, 170)"></g><g id="g-root-shie_quobedu0864t-fill" data-item-order="1000000000" data-item-id="shie_quobedu0864t" data-item-class="Icon Stroke Indexed InsideFill InsideColorFill" data-item-index="2" data-renderer-id="0" transform="translate(338, 170)"></g><g id="g-root-tx_2004_qpoiphu02kge-fill" data-item-order="1000000000" data-item-id="tx_2004_qpoiphu02kge" data-item-class="Label Stroke Indexed ColorStrokeGray" data-item-index="2" data-renderer-id="0" transform="translate(422, 182)"><g id="tx_2004_qpoiphu02kge-fill" stroke="none" fill="#8e8e8e"><g><text style="font: bold 20px Roboto, sans-serif; white-space: pre;" font-weight="bold" font-size="20" font-family="Roboto, sans-serif"><tspan x="12" y="34" dominant-baseline="ideographic">2004</tspan></text></g></g></g><g id="g-root-tx_2004_qpoiphu02kge-fill" data-item-order="1000000000" data-item-id="tx_2004_qpoiphu02kge" data-item-class="Label Stroke Indexed ColorStrokeGray" data-item-index="2" data-renderer-id="0" transform="translate(422, 182)"><g id="tx_2004_qpoiphu02kge-fill" stroke="none" fill="#8e8e8e"><g><text style="font: bold 20px Roboto, sans-serif; white-space: pre;" font-weight="bold" font-size="20" font-family="Roboto, sans-serif"><tspan x="12" y="34" dominant-baseline="ideographic">2004</tspan></text></g></g></g><g id="g-root-tx_abasilei_1cws1bpu02i2r-fill" data-item-order="1000000000" data-item-id="tx_abasilei_1cws1bpu02i2r" data-item-class="Label Stroke Indexed ColorStrokeGray" data-item-index="2" data-renderer-id="0" transform="translate(422, 218)"><g id="tx_abasilei_1cws1bpu02i2r-fill" stroke="none" fill="#8e8e8e"><g><text style="font: 20px Roboto, sans-serif; white-space: pre;" font-weight="20px" font-size="Roboto," font-family="sans-serif"><tspan x="12" y="34" dominant-baseline="ideographic">A Basileia II refinou os requisitos </tspan><tspan x="12" y="58" dominant-baseline="ideographic">de capital</tspan></text></g></g></g><g id="g-root-tx_abasilei_1cws1bpu02i2r-fill" data-item-order="1000000000" data-item-id="tx_abasilei_1cws1bpu02i2r" data-item-class="Label Stroke Indexed ColorStrokeGray" data-item-index="2" data-renderer-id="0" transform="translate(422, 218)"><g id="tx_abasilei_1cws1bpu02i2r-fill" stroke="none" fill="#8e8e8e"><g><text style="font: 20px Roboto, sans-serif; white-space: pre;" font-weight="20px" font-size="Roboto," font-family="sans-serif"><tspan x="12" y="34" dominant-baseline="ideographic">A Basileia II refinou os requisitos </tspan><tspan x="12" y="58" dominant-baseline="ideographic">de capital</tspan></text></g></g></g><g id="g-root-tx_1988_mahho5u02i2v-fill" data-item-order="1000000000" data-item-id="tx_1988_mahho5u02i2v" data-item-class="Label Stroke Indexed Indexed_1 ColorStrokeGray" data-item-index="1" data-renderer-id="0" transform="translate(242, 86)"><g id="tx_1988_mahho5u02i2v-fill" stroke="none" fill="#8e8e8e"><g><text style="font: bold 20px Roboto, sans-serif; white-space: pre;" font-weight="bold" font-size="20" font-family="Roboto, sans-serif"><tspan x="22.09" y="34" dominant-baseline="ideographic">1988</tspan></text></g></g></g><g id="g-root-tx_1988_mahho5u02i2v-fill" data-item-order="1000000000" data-item-id="tx_1988_mahho5u02i2v" data-item-class="Label Stroke Indexed Indexed_1 ColorStrokeGray" data-item-index="1" data-renderer-id="0" transform="translate(242, 86)"><g id="tx_1988_mahho5u02i2v-fill" stroke="none" fill="#8e8e8e"><g><text style="font: bold 20px Roboto, sans-serif; white-space: pre;" font-weight="bold" font-size="20" font-family="Roboto, sans-serif"><tspan x="22.09" y="34" dominant-baseline="ideographic">1988</tspan></text></g></g></g><g id="g-root-tx_2010_zlbiydu02jnp-fill" data-item-order="1000000000" data-item-id="tx_2010_zlbiydu02jnp" data-item-class="Label Stroke Indexed ColorStrokeGray" data-item-index="3" data-renderer-id="0" transform="translate(242, 278)"><g id="tx_2010_zlbiydu02jnp-fill" stroke="none" fill="#8e8e8e"><g><text style="font: bold 20px Roboto, sans-serif; white-space: pre;" font-weight="bold" font-size="20" font-family="Roboto, sans-serif"><tspan x="22.09" y="34" dominant-baseline="ideographic">2010</tspan></text></g></g></g><g id="g-root-tx_2010_zlbiydu02jnp-fill" data-item-order="1000000000" data-item-id="tx_2010_zlbiydu02jnp" data-item-class="Label Stroke Indexed ColorStrokeGray" data-item-index="3" data-renderer-id="0" transform="translate(242, 278)"><g id="tx_2010_zlbiydu02jnp-fill" stroke="none" fill="#8e8e8e"><g><text style="font: bold 20px Roboto, sans-serif; white-space: pre;" font-weight="bold" font-size="20" font-family="Roboto, sans-serif"><tspan x="22.09" y="34" dominant-baseline="ideographic">2010</tspan></text></g></g></g><g id="g-root-badg_meut9xu086x2-fill" data-item-order="1000000000" data-item-id="badg_meut9xu086x2" data-item-class="Icon Stroke Indexed InsideFill InsideColorFill" data-item-index="3" data-renderer-id="0" transform="translate(338, 266)"></g><g id="g-root-badg_meut9xu086x2-fill" data-item-order="1000000000" data-item-id="badg_meut9xu086x2" data-item-class="Icon Stroke Indexed InsideFill InsideColorFill" data-item-index="3" data-renderer-id="0" transform="translate(338, 266)"></g><g id="g-root-tx_abasilei_1hbz2d1u02kga-fill" data-item-order="1000000000" data-item-id="tx_abasilei_1hbz2d1u02kga" data-item-class="Label Stroke Indexed ColorStrokeGray" data-item-index="3" data-renderer-id="0" transform="translate(2, 314)"><g id="tx_abasilei_1hbz2d1u02kga-fill" stroke="none" fill="#8e8e8e"><g><text style="font: 20px Roboto, sans-serif; white-space: pre;" font-weight="20px" font-size="Roboto," font-family="sans-serif"><tspan x="17.86" y="34" dominant-baseline="ideographic">A Basileia III introduziu regras de </tspan><tspan x="134.58" y="58" dominant-baseline="ideographic">capital mais rígidas</tspan></text></g></g></g><g id="g-root-tx_abasilei_1hbz2d1u02kga-fill" data-item-order="1000000000" data-item-id="tx_abasilei_1hbz2d1u02kga" data-item-class="Label Stroke Indexed ColorStrokeGray" data-item-index="3" data-renderer-id="0" transform="translate(2, 314)"><g id="tx_abasilei_1hbz2d1u02kga-fill" stroke="none" fill="#8e8e8e"><g><text style="font: 20px Roboto, sans-serif; white-space: pre;" font-weight="20px" font-size="Roboto," font-family="sans-serif"><tspan x="17.86" y="34" dominant-baseline="ideographic">A Basileia III introduziu regras de </tspan><tspan x="134.58" y="58" dominant-baseline="ideographic">capital mais rígidas</tspan></text></g></g></g><g id="g-root-tx_fortalec_1unfkqdu02ivd-fill" data-item-order="1000000000" data-item-id="tx_fortalec_1unfkqdu02ivd" data-item-class="Label Stroke Title ColorStrokeGray" data-item-index="none" data-renderer-id="0" transform="translate(86, 2)"><g id="tx_fortalec_1unfkqdu02ivd-fill" stroke="none" fill="#8e8e8e"><g><text style="font: 20px Roboto, sans-serif; white-space: pre;" font-weight="20px" font-size="Roboto," font-family="sans-serif"><tspan x="15.66" y="34" dominant-baseline="ideographic">Fortalecimento das Regulamentações de Capital dos Bancos</tspan></text></g></g></g><g id="g-root-tx_fortalec_1unfkqdu02ivd-fill" data-item-order="1000000000" data-item-id="tx_fortalec_1unfkqdu02ivd" data-item-class="Label Stroke Title ColorStrokeGray" data-item-index="none" data-renderer-id="0" transform="translate(86, 2)"><g id="tx_fortalec_1unfkqdu02ivd-fill" stroke="none" fill="#8e8e8e"><g><text style="font: 20px Roboto, sans-serif; white-space: pre;" font-weight="20px" font-size="Roboto," font-family="sans-serif"><tspan x="15.66" y="34" dominant-baseline="ideographic">Fortalecimento das Regulamentações de Capital dos Bancos</tspan></text></g></g></g><g id="g-root--1.Vector_sy_250vpu02ia4-stroke" data-item-order="999978405" data-item-id="-1.Vector_sy_250vpu02ia4" data-item-class="Part Stroke ColorStrokeGray" data-item-index="-1" data-renderer-id="0" transform="translate(362, 134)"><g id="-1.Vector_sy_250vpu02ia4-stroke" fill="none" stroke-linecap="round" stroke-linejoin="round" stroke-miterlimit="4" stroke="#8e8e8e" stroke-width="2"><g><path d="M 10 130L 10 106M 10 34L 10 10"></path></g></g></g><g id="g-root--1.Vector_sy_250vpu02ia4-stroke" data-item-order="999978405" data-item-id="-1.Vector_sy_250vpu02ia4" data-item-class="Part Stroke ColorStrokeGray" data-item-index="-1" data-renderer-id="0" transform="translate(362, 134)"><g id="-1.Vector_sy_250vpu02ia4-stroke" fill="none" stroke-linecap="round" stroke-linejoin="round" stroke-miterlimit="4" stroke="#8e8e8e" stroke-width="2"><g><path d="M 10 130L 10 106M 10 34L 10 10"></path></g></g></g><g id="g-root--1.cu_sy_250vpu02ia5-stroke" data-item-order="999978407" data-item-id="-1.cu_sy_250vpu02ia5" data-item-class="Part Stroke ColorStrokeGray" data-item-index="-1" data-renderer-id="0" transform="translate(362, 326)"><g id="-1.cu_sy_250vpu02ia5-stroke" fill="none" stroke-linecap="round" stroke-linejoin="round" stroke-miterlimit="4" stroke="#8e8e8e" stroke-width="2"><g><path d="M 10 44L 10 10"></path><path d="M 3.5 38L 10 44.5L 16.5 38" stroke-dasharray="none"></path></g></g></g><g id="g-root--1.cu_sy_250vpu02ia5-stroke" data-item-order="999978407" data-item-id="-1.cu_sy_250vpu02ia5" data-item-class="Part Stroke ColorStrokeGray" data-item-index="-1" data-renderer-id="0" transform="translate(362, 326)"><g id="-1.cu_sy_250vpu02ia5-stroke" fill="none" stroke-linecap="round" stroke-linejoin="round" stroke-miterlimit="4" stroke="#8e8e8e" stroke-width="2"><g><path d="M 10 44L 10 10"></path><path d="M 3.5 38L 10 44.5L 16.5 38" stroke-dasharray="none"></path></g></g></g><g id="g-root-3.cr-big_cr_1unfkqdu02ivc-stroke" data-item-order="999978408" data-item-id="3.cr-big_cr_1unfkqdu02ivc" data-item-class="Shape Stroke Fill Part Indexed ColorStrokeGray" data-item-index="3" data-renderer-id="0" transform="translate(326, 254)"><g id="3.cr-big_cr_1unfkqdu02ivc-stroke" fill="none" stroke-linecap="round" stroke-linejoin="round" stroke-miterlimit="4" stroke="#2C2C2C" stroke-width="2"><g><path d="M 10 46C 10 65.882251 26.117749 82 46 82C 65.882251 82 82 65.882251 82 46C 82 26.117749 65.882251 10 46 10C 26.117749 10 10 26.117749 10 46"></path></g></g></g><g id="g-root-3.cr-big_cr_1unfkqdu02ivc-stroke" data-item-order="999978408" data-item-id="3.cr-big_cr_1unfkqdu02ivc" data-item-class="Shape Stroke Fill Part Indexed ColorStrokeGray" data-item-index="3" data-renderer-id="0" transform="translate(326, 254)"><g id="3.cr-big_cr_1unfkqdu02ivc-stroke" fill="none" stroke-linecap="round" stroke-linejoin="round" stroke-miterlimit="4" stroke="#2C2C2C" stroke-width="2"><g><path d="M 10 46C 10 65.882251 26.117749 82 46 82C 65.882251 82 82 65.882251 82 46C 82 26.117749 65.882251 10 46 10C 26.117749 10 10 26.117749 10 46"></path></g></g></g><g id="g-root-2.cr-big_cr_1unfkqdu02ivb-stroke" data-item-order="999978410" data-item-id="2.cr-big_cr_1unfkqdu02ivb" data-item-class="Shape Stroke Fill Part Indexed ColorStrokeGray" data-item-index="2" data-renderer-id="0" transform="translate(326, 158)"><g id="2.cr-big_cr_1unfkqdu02ivb-stroke" fill="none" stroke-linecap="round" stroke-linejoin="round" stroke-miterlimit="4" stroke="#2C2C2C" stroke-width="2"><g><path d="M 10 46C 10 65.882251 26.117749 82 46 82C 65.882251 82 82 65.882251 82 46C 82 26.117749 65.882251 10 46 10C 26.117749 10 10 26.117749 10 46"></path></g></g></g><g id="g-root-2.cr-big_cr_1unfkqdu02ivb-stroke" data-item-order="999978410" data-item-id="2.cr-big_cr_1unfkqdu02ivb" data-item-class="Shape Stroke Fill Part Indexed ColorStrokeGray" data-item-index="2" data-renderer-id="0" transform="translate(326, 158)"><g id="2.cr-big_cr_1unfkqdu02ivb-stroke" fill="none" stroke-linecap="round" stroke-linejoin="round" stroke-miterlimit="4" stroke="#2C2C2C" stroke-width="2"><g><path d="M 10 46C 10 65.882251 26.117749 82 46 82C 65.882251 82 82 65.882251 82 46C 82 26.117749 65.882251 10 46 10C 26.117749 10 10 26.117749 10 46"></path></g></g></g><g id="g-root-1.cr-big_cr_250vpu02ia6-stroke" data-item-order="999978412" data-item-id="1.cr-big_cr_250vpu02ia6" data-item-class="Shape Stroke Fill Part Indexed Indexed_1 ColorStrokeGray" data-item-index="1" data-renderer-id="0" transform="translate(326, 62)"><g id="1.cr-big_cr_250vpu02ia6-stroke" fill="none" stroke-linecap="round" stroke-linejoin="round" stroke-miterlimit="4" stroke="#2C2C2C" stroke-width="2"><g><path d="M 10 46C 10 65.882251 26.117749 82 46 82C 65.882251 82 82 65.882251 82 46C 82 26.117749 65.882251 10 46 10C 26.117749 10 10 26.117749 10 46"></path></g></g></g><g id="g-root-1.cr-big_cr_250vpu02ia6-stroke" data-item-order="999978412" data-item-id="1.cr-big_cr_250vpu02ia6" data-item-class="Shape Stroke Fill Part Indexed Indexed_1 ColorStrokeGray" data-item-index="1" data-renderer-id="0" transform="translate(326, 62)"><g id="1.cr-big_cr_250vpu02ia6-stroke" fill="none" stroke-linecap="round" stroke-linejoin="round" stroke-miterlimit="4" stroke="#2C2C2C" stroke-width="2"><g><path d="M 10 46C 10 65.882251 26.117749 82 46 82C 65.882251 82 82 65.882251 82 46C 82 26.117749 65.882251 10 46 10C 26.117749 10 10 26.117749 10 46"></path></g></g></g><g id="g-root-tx_abasilei_141512tu02ivg-stroke" data-item-order="1000000000" data-item-id="tx_abasilei_141512tu02ivg" data-item-class="Label Stroke Indexed Indexed_1 ColorStrokeGray" data-item-index="1" data-renderer-id="0" transform="translate(26, 122)"></g><g id="g-root-tx_abasilei_141512tu02ivg-stroke" data-item-order="1000000000" data-item-id="tx_abasilei_141512tu02ivg" data-item-class="Label Stroke Indexed Indexed_1 ColorStrokeGray" data-item-index="1" data-renderer-id="0" transform="translate(26, 122)"></g><g id="g-root-1_1q6zlitu0f75s-stroke" data-item-order="1000000000" data-item-id="1_1q6zlitu0f75s" data-item-class="Icon Stroke Indexed Indexed_1 InsideFill InsideColorFill" data-item-index="1" data-renderer-id="0" transform="translate(338, 74)"><g id="1_1q6zlitu0f75s-stroke" fill="none" stroke-linecap="round" stroke-linejoin="round" stroke-miterlimit="4" stroke="#FFFFFF" stroke-width="2"><g><path d="M 15.007999 48.866001L 15.007999 32.865997M 13.007999 48.866001L 23.007999 48.866001M 11.008 56.866001L 57.007999 56.866001M 11.008 52.866001L 57.007999 52.866001M 13.007999 32.865997L 23.007999 32.865997M 29.007999 48.866001L 39.007999 48.866001M 29.007999 32.865997L 39.007999 32.865997M 21.007999 48.866001L 21.007999 32.865997M 31.007999 48.866001L 31.007999 32.865997M 37.007999 48.866001L 37.007999 32.865997M 45.007999 48.866001L 55.007999 48.866001M 45.007999 32.865997L 55.007999 32.865997M 47.007999 48.866001L 47.007999 32.865997M 53.007999 48.866001L 53.007999 32.865997M 13.3 27.076C 12.962225 27.33814 12.82848 27.786028 12.967207 28.19046C 13.105933 28.594891 13.486437 28.866383 13.914 28.865999L 54.113998 28.865999C 54.541229 28.866995 54.921902 28.596468 55.061466 28.192678C 55.201031 27.788887 55.068657 27.341032 54.731998 27.077999L 34.686001 11.348C 34.324089 11.064995 33.81591 11.064995 33.454002 11.348Z"></path></g></g></g><g id="g-root-1_1q6zlitu0f75s-stroke" data-item-order="1000000000" data-item-id="1_1q6zlitu0f75s" data-item-class="Icon Stroke Indexed Indexed_1 InsideFill InsideColorFill" data-item-index="1" data-renderer-id="0" transform="translate(338, 74)"><g id="1_1q6zlitu0f75s-stroke" fill="none" stroke-linecap="round" stroke-linejoin="round" stroke-miterlimit="4" stroke="#FFFFFF" stroke-width="2"><g><path d="M 15.007999 48.866001L 15.007999 32.865997M 13.007999 48.866001L 23.007999 48.866001M 11.008 56.866001L 57.007999 56.866001M 11.008 52.866001L 57.007999 52.866001M 13.007999 32.865997L 23.007999 32.865997M 29.007999 48.866001L 39.007999 48.866001M 29.007999 32.865997L 39.007999 32.865997M 21.007999 48.866001L 21.007999 32.865997M 31.007999 48.866001L 31.007999 32.865997M 37.007999 48.866001L 37.007999 32.865997M 45.007999 48.866001L 55.007999 48.866001M 45.007999 32.865997L 55.007999 32.865997M 47.007999 48.866001L 47.007999 32.865997M 53.007999 48.866001L 53.007999 32.865997M 13.3 27.076C 12.962225 27.33814 12.82848 27.786028 12.967207 28.19046C 13.105933 28.594891 13.486437 28.866383 13.914 28.865999L 54.113998 28.865999C 54.541229 28.866995 54.921902 28.596468 55.061466 28.192678C 55.201031 27.788887 55.068657 27.341032 54.731998 27.077999L 34.686001 11.348C 34.324089 11.064995 33.81591 11.064995 33.454002 11.348Z"></path></g></g></g><g id="g-root-shie_quobedu0864t-stroke" data-item-order="1000000000" data-item-id="shie_quobedu0864t" data-item-class="Icon Stroke Indexed InsideFill InsideColorFill" data-item-index="2" data-renderer-id="0" transform="translate(338, 170)"><g id="shie_quobedu0864t-stroke" fill="none" stroke-linecap="round" stroke-linejoin="round" stroke-miterlimit="4" stroke="#FFFFFF" stroke-width="2"><g><path d="M 15 13C 15 11.895431 15.895431 11 17 11L 51 11C 52.104568 11 53 11.895431 53 13L 53 25.528C 52.999878 38.732285 45.684467 50.849682 34 57C 22.314255 50.851032 14.998331 38.732784 15 25.528ZM 26 21.996L 42 37.996002M 42 21.996L 26 37.996002"></path></g></g></g><g id="g-root-shie_quobedu0864t-stroke" data-item-order="1000000000" data-item-id="shie_quobedu0864t" data-item-class="Icon Stroke Indexed InsideFill InsideColorFill" data-item-index="2" data-renderer-id="0" transform="translate(338, 170)"><g id="shie_quobedu0864t-stroke" fill="none" stroke-linecap="round" stroke-linejoin="round" stroke-miterlimit="4" stroke="#FFFFFF" stroke-width="2"><g><path d="M 15 13C 15 11.895431 15.895431 11 17 11L 51 11C 52.104568 11 53 11.895431 53 13L 53 25.528C 52.999878 38.732285 45.684467 50.849682 34 57C 22.314255 50.851032 14.998331 38.732784 15 25.528ZM 26 21.996L 42 37.996002M 42 21.996L 26 37.996002"></path></g></g></g><g id="g-root-tx_2004_qpoiphu02kge-stroke" data-item-order="1000000000" data-item-id="tx_2004_qpoiphu02kge" data-item-class="Label Stroke Indexed ColorStrokeGray" data-item-index="2" data-renderer-id="0" transform="translate(422, 182)"></g><g id="g-root-tx_2004_qpoiphu02kge-stroke" data-item-order="1000000000" data-item-id="tx_2004_qpoiphu02kge" data-item-class="Label Stroke Indexed ColorStrokeGray" data-item-index="2" data-renderer-id="0" transform="translate(422, 182)"></g><g id="g-root-tx_abasilei_1cws1bpu02i2r-stroke" data-item-order="1000000000" data-item-id="tx_abasilei_1cws1bpu02i2r" data-item-class="Label Stroke Indexed ColorStrokeGray" data-item-index="2" data-renderer-id="0" transform="translate(422, 218)"></g><g id="g-root-tx_abasilei_1cws1bpu02i2r-stroke" data-item-order="1000000000" data-item-id="tx_abasilei_1cws1bpu02i2r" data-item-class="Label Stroke Indexed ColorStrokeGray" data-item-index="2" data-renderer-id="0" transform="translate(422, 218)"></g><g id="g-root-tx_1988_mahho5u02i2v-stroke" data-item-order="1000000000" data-item-id="tx_1988_mahho5u02i2v" data-item-class="Label Stroke Indexed Indexed_1 ColorStrokeGray" data-item-index="1" data-renderer-id="0" transform="translate(242, 86)"></g><g id="g-root-tx_1988_mahho5u02i2v-stroke" data-item-order="1000000000" data-item-id="tx_1988_mahho5u02i2v" data-item-class="Label Stroke Indexed Indexed_1 ColorStrokeGray" data-item-index="1" data-renderer-id="0" transform="translate(242, 86)"></g><g id="g-root-tx_2010_zlbiydu02jnp-stroke" data-item-order="1000000000" data-item-id="tx_2010_zlbiydu02jnp" data-item-class="Label Stroke Indexed ColorStrokeGray" data-item-index="3" data-renderer-id="0" transform="translate(242, 278)"></g><g id="g-root-tx_2010_zlbiydu02jnp-stroke" data-item-order="1000000000" data-item-id="tx_2010_zlbiydu02jnp" data-item-class="Label Stroke Indexed ColorStrokeGray" data-item-index="3" data-renderer-id="0" transform="translate(242, 278)"></g><g id="g-root-badg_meut9xu086x2-stroke" data-item-order="1000000000" data-item-id="badg_meut9xu086x2" data-item-class="Icon Stroke Indexed InsideFill InsideColorFill" data-item-index="3" data-renderer-id="0" transform="translate(338, 266)"><g id="badg_meut9xu086x2-stroke" fill="none" stroke-linecap="round" stroke-linejoin="round" stroke-miterlimit="4" stroke="#FFFFFF" stroke-width="2"><g><path d="M 15.625999 42.478001L 20.694 34.610001C 20.904259 34.281425 20.904259 33.860577 20.694 33.531998L 15.606 25.532M 17 23L 25.549999 23C 25.835899 23.000076 26.108162 22.877777 26.298 22.664L 32 16.242001M 17 45L 25.549999 45C 25.835899 44.999924 26.108162 45.122223 26.298 45.335999L 32 51.757999M 11 23C 11 24.656855 12.343145 26 14 26C 15.656855 26 17 24.656855 17 23C 17 21.343147 15.656855 20 14 20C 12.343145 20 11 21.343147 11 23ZM 31 14C 31 15.656855 32.343147 17 34 17C 35.656853 17 37 15.656855 37 14C 37 12.343145 35.656853 11 34 11C 32.343147 11 31 12.343145 31 14ZM 31 54C 31 55.656857 32.343147 57 34 57C 35.656853 57 37 55.656857 37 54C 37 52.343147 35.656853 51 34 51C 32.343147 51 31 52.343147 31 54ZM 11 45C 11 46.656857 12.343145 48 14 48C 15.656855 48 17 46.656857 17 45C 17 43.343147 15.656855 42 14 42C 12.343145 42 11 43.343147 11 45ZM 52.374001 42.478001L 47.306 34.610001C 47.095741 34.281425 47.095741 33.860577 47.306 33.531998L 52.394001 25.532M 51 23L 42.450001 23C 42.164101 23.000076 41.891838 22.877777 41.702 22.664L 36 16.242001M 51 45L 42.450001 45C 42.164101 44.999924 41.891838 45.122223 41.702 45.335999L 36 51.757999M 51 23C 51 24.656855 52.343147 26 54 26C 55.656857 26 57 24.656855 57 23C 57 21.343147 55.656857 20 54 20C 52.343147 20 51 21.343147 51 23ZM 51 45C 51 46.656857 52.343147 48 54 48C 55.656857 48 57 46.656857 57 45C 57 43.343147 55.656857 42 54 42C 52.343147 42 51 43.343147 51 45ZM 25 34C 25 38.970562 29.029438 43 34 43C 38.970562 43 43 38.970562 43 34C 43 29.029438 38.970562 25 34 25C 29.029438 25 25 29.029438 25 34Z"></path></g></g></g><g id="g-root-badg_meut9xu086x2-stroke" data-item-order="1000000000" data-item-id="badg_meut9xu086x2" data-item-class="Icon Stroke Indexed InsideFill InsideColorFill" data-item-index="3" data-renderer-id="0" transform="translate(338, 266)"><g id="badg_meut9xu086x2-stroke" fill="none" stroke-linecap="round" stroke-linejoin="round" stroke-miterlimit="4" stroke="#FFFFFF" stroke-width="2"><g><path d="M 15.625999 42.478001L 20.694 34.610001C 20.904259 34.281425 20.904259 33.860577 20.694 33.531998L 15.606 25.532M 17 23L 25.549999 23C 25.835899 23.000076 26.108162 22.877777 26.298 22.664L 32 16.242001M 17 45L 25.549999 45C 25.835899 44.999924 26.108162 45.122223 26.298 45.335999L 32 51.757999M 11 23C 11 24.656855 12.343145 26 14 26C 15.656855 26 17 24.656855 17 23C 17 21.343147 15.656855 20 14 20C 12.343145 20 11 21.343147 11 23ZM 31 14C 31 15.656855 32.343147 17 34 17C 35.656853 17 37 15.656855 37 14C 37 12.343145 35.656853 11 34 11C 32.343147 11 31 12.343145 31 14ZM 31 54C 31 55.656857 32.343147 57 34 57C 35.656853 57 37 55.656857 37 54C 37 52.343147 35.656853 51 34 51C 32.343147 51 31 52.343147 31 54ZM 11 45C 11 46.656857 12.343145 48 14 48C 15.656855 48 17 46.656857 17 45C 17 43.343147 15.656855 42 14 42C 12.343145 42 11 43.343147 11 45ZM 52.374001 42.478001L 47.306 34.610001C 47.095741 34.281425 47.095741 33.860577 47.306 33.531998L 52.394001 25.532M 51 23L 42.450001 23C 42.164101 23.000076 41.891838 22.877777 41.702 22.664L 36 16.242001M 51 45L 42.450001 45C 42.164101 44.999924 41.891838 45.122223 41.702 45.335999L 36 51.757999M 51 23C 51 24.656855 52.343147 26 54 26C 55.656857 26 57 24.656855 57 23C 57 21.343147 55.656857 20 54 20C 52.343147 20 51 21.343147 51 23ZM 51 45C 51 46.656857 52.343147 48 54 48C 55.656857 48 57 46.656857 57 45C 57 43.343147 55.656857 42 54 42C 52.343147 42 51 43.343147 51 45ZM 25 34C 25 38.970562 29.029438 43 34 43C 38.970562 43 43 38.970562 43 34C 43 29.029438 38.970562 25 34 25C 29.029438 25 25 29.029438 25 34Z"></path></g></g></g><g id="g-root-tx_abasilei_1hbz2d1u02kga-stroke" data-item-order="1000000000" data-item-id="tx_abasilei_1hbz2d1u02kga" data-item-class="Label Stroke Indexed ColorStrokeGray" data-item-index="3" data-renderer-id="0" transform="translate(2, 314)"></g><g id="g-root-tx_abasilei_1hbz2d1u02kga-stroke" data-item-order="1000000000" data-item-id="tx_abasilei_1hbz2d1u02kga" data-item-class="Label Stroke Indexed ColorStrokeGray" data-item-index="3" data-renderer-id="0" transform="translate(2, 314)"></g><g id="g-root-tx_fortalec_1unfkqdu02ivd-stroke" data-item-order="1000000000" data-item-id="tx_fortalec_1unfkqdu02ivd" data-item-class="Label Stroke Title ColorStrokeGray" data-item-index="none" data-renderer-id="0" transform="translate(86, 2)"></g><g id="g-root-tx_fortalec_1unfkqdu02ivd-stroke" data-item-order="1000000000" data-item-id="tx_fortalec_1unfkqdu02ivd" data-item-class="Label Stroke Title ColorStrokeGray" data-item-index="none" data-renderer-id="0" transform="translate(86, 2)"></g></g></g></svg>