<?xml version="1.0" encoding="utf-8" standalone="yes"?>
<!DOCTYPE svg PUBLIC "-//W3C//DTD SVG 1.1//EN" "http://www.w3.org/Graphics/SVG/1.1/DTD/svg11.dtd">
<svg width="578" height="374" viewBox="0 0 578 374" style="fill:none;stroke:none;fill-rule:evenodd;clip-rule:evenodd;stroke-linecap:round;stroke-linejoin:round;stroke-miterlimit:1.5;" version="1.1" xmlns="http://www.w3.org/2000/svg" xmlns:xlink="http://www.w3.org/1999/xlink"><style id="fontImports">@import url("https://fonts.googleapis.com/css2?family=Roboto:wght@400;700&amp;display=block");</style><g id="items" style="isolation: isolate"><g id="blend" style="mix-blend-mode:normal"><g id="g-root--1.cu-1_sy_1uuw4oltqjua2-fill" data-item-order="999807908" data-item-id="-1.cu-1_sy_1uuw4oltqjua2" data-item-class="Part Fill Stroke ColorFillBlack ColorStrokeBlack" data-item-index="-1" data-renderer-id="0" transform="translate(3, 3)"><g id="-1.cu-1_sy_1uuw4oltqjua2-fill" stroke="none" fill="#434343"><g><path d="M 286 10L 562 130L 550 154L 22 154L 10 130L 286 10ZM 562 358L 10 358L 22 334L 550 334L 562 358Z"></path></g></g></g><g id="g-root--1.cu-1_sy_1uuw4oltqjua2-fill" data-item-order="999807908" data-item-id="-1.cu-1_sy_1uuw4oltqjua2" data-item-class="Part Fill Stroke ColorFillBlack ColorStrokeBlack" data-item-index="-1" data-renderer-id="0" transform="translate(3, 3)"><g id="-1.cu-1_sy_1uuw4oltqjua2-fill" stroke="none" fill="#434343"><g><path d="M 286 10L 562 130L 550 154L 22 154L 10 130L 286 10ZM 562 358L 10 358L 22 334L 550 334L 562 358Z"></path></g></g></g><g id="g-root-3.cu_sy_1q5pi9htql6h1-fill" data-item-order="999807910" data-item-id="3.cu_sy_1q5pi9htql6h1" data-item-class="Part Indexed Fill Stroke ColorStrokeGray" data-item-index="3" data-renderer-id="0" transform="translate(363, 147)"><g id="3.cu_sy_1q5pi9htql6h1-fill" stroke="none" fill="#1AC6FF"><g><path d="M 10 190L 178 190L 178 10L 10 10L 10 190Z"></path></g></g></g><g id="g-root-3.cu_sy_1q5pi9htql6h1-fill" data-item-order="999807910" data-item-id="3.cu_sy_1q5pi9htql6h1" data-item-class="Part Indexed Fill Stroke ColorStrokeGray" data-item-index="3" data-renderer-id="0" transform="translate(363, 147)"><g id="3.cu_sy_1q5pi9htql6h1-fill" stroke="none" fill="#1AC6FF"><g><path d="M 10 190L 178 190L 178 10L 10 10L 10 190Z"></path></g></g></g><g id="g-root-2.cu_sy_1q5pi9htql6h0-fill" data-item-order="999807912" data-item-id="2.cu_sy_1q5pi9htql6h0" data-item-class="Part Indexed Fill Stroke ColorStrokeGray" data-item-index="2" data-renderer-id="0" transform="translate(195, 147)"><g id="2.cu_sy_1q5pi9htql6h0-fill" stroke="none" fill="#A8DD38"><g><path d="M 10 190L 94 190L 178 190L 178 10L 10 10L 10 190Z"></path></g></g></g><g id="g-root-2.cu_sy_1q5pi9htql6h0-fill" data-item-order="999807912" data-item-id="2.cu_sy_1q5pi9htql6h0" data-item-class="Part Indexed Fill Stroke ColorStrokeGray" data-item-index="2" data-renderer-id="0" transform="translate(195, 147)"><g id="2.cu_sy_1q5pi9htql6h0-fill" stroke="none" fill="#A8DD38"><g><path d="M 10 190L 94 190L 178 190L 178 10L 10 10L 10 190Z"></path></g></g></g><g id="g-root-1.cu_sy_1q5pi9htql6gz-fill" data-item-order="999807914" data-item-id="1.cu_sy_1q5pi9htql6gz" data-item-class="Part Indexed Indexed_1 Fill Stroke ColorStrokeGray" data-item-index="1" data-renderer-id="0" transform="translate(27, 147)"><g id="1.cu_sy_1q5pi9htql6gz-fill" stroke="none" fill="#44E095"><g><path d="M 10 190L 178 190L 178 10L 10 10L 10 190Z"></path></g></g></g><g id="g-root-1.cu_sy_1q5pi9htql6gz-fill" data-item-order="999807914" data-item-id="1.cu_sy_1q5pi9htql6gz" data-item-class="Part Indexed Indexed_1 Fill Stroke ColorStrokeGray" data-item-index="1" data-renderer-id="0" transform="translate(27, 147)"><g id="1.cu_sy_1q5pi9htql6gz-fill" stroke="none" fill="#44E095"><g><path d="M 10 190L 178 190L 178 10L 10 10L 10 190Z"></path></g></g></g><g id="g-root-2_1lrrik5tq1ibr-fill" data-item-order="1000000000" data-item-id="2_1lrrik5tq1ibr" data-item-class="Icon Stroke Title InsideFill InsideColorFill InsideBlackFill ColorFillBlack ColorStrokeGray" data-item-index="none" data-renderer-id="0" transform="translate(255, 27)"></g><g id="g-root-tx_acordode_v3lghhtql79d-fill" data-item-order="1000000000" data-item-id="tx_acordode_v3lghhtql79d" data-item-class="Label Stroke Title InsideFill InsideColorFill InsideBlackFill ColorFillBlack ColorStrokeGray" data-item-index="none" data-renderer-id="0" transform="translate(189, 99)"><g id="tx_acordode_v3lghhtql79d-fill" stroke="none" fill="#A3A3A3"><g><text style="font: 20px Roboto, sans-serif; white-space: pre;" font-weight="20px" font-size="Roboto," font-family="sans-serif"><tspan x="17.17" y="34" dominant-baseline="ideographic">Acordo de Basileia</tspan></text></g></g></g><g id="g-root-1_1hby0fptq1j40-fill" data-item-order="1000000000" data-item-id="1_1hby0fptq1j40" data-item-class="Icon Stroke Indexed Indexed_1 InsideFill InsideColorFill ColorStrokeGray" data-item-index="1" data-renderer-id="0" transform="translate(87, 171)"></g><g id="g-root-docu_147cmuttqmm0y-fill" data-item-order="1000000000" data-item-id="docu_147cmuttqmm0y" data-item-class="Icon Stroke Indexed InsideFill InsideColorFill ColorStrokeGray" data-item-index="2" data-renderer-id="0" transform="translate(255, 171)"></g><g id="g-root-1_18n64z9tqml8p-fill" data-item-order="1000000000" data-item-id="1_18n64z9tqml8p" data-item-class="Icon Stroke Indexed InsideFill InsideColorFill ColorStrokeGray" data-item-index="3" data-renderer-id="0" transform="translate(423, 171)"></g><g id="g-root-tx_estrutur_1ha2i0ltql79q-fill" data-item-order="1000000000" data-item-id="tx_estrutur_1ha2i0ltql79q" data-item-class="Label Stroke Indexed Indexed_1 InsideFill InsideColorFill ColorStrokeGray" data-item-index="1" data-renderer-id="0" transform="translate(57, 231)"><g id="tx_estrutur_1ha2i0ltql79q-fill" stroke="none" fill="#2C2C2C"><g><text style="font: 20px Roboto, sans-serif; white-space: pre;" font-weight="20px" font-size="Roboto," font-family="sans-serif"><tspan x="23.59" y="34" dominant-baseline="ideographic">Estrutura </tspan><tspan x="13.43" y="58" dominant-baseline="ideographic">Regulatória</tspan></text></g></g></g><g id="g-root-tx_prticasd_1cu8zw5tql81z-fill" data-item-order="1000000000" data-item-id="tx_prticasd_1cu8zw5tql81z" data-item-class="Label Stroke Indexed InsideFill InsideColorFill ColorStrokeGray" data-item-index="2" data-renderer-id="0" transform="translate(219, 231)"><g id="tx_prticasd_1cu8zw5tql81z-fill" stroke="none" fill="#2C2C2C"><g><text style="font: 20px Roboto, sans-serif; white-space: pre;" font-weight="20px" font-size="Roboto," font-family="sans-serif"><tspan x="17.65" y="34" dominant-baseline="ideographic">Práticas de </tspan><tspan x="18.12" y="58" dominant-baseline="ideographic">Supervisão</tspan></text></g></g></g><g id="g-root-tx_gestoder_18efhrptql8u8-fill" data-item-order="1000000000" data-item-id="tx_gestoder_18efhrptql8u8" data-item-class="Label Stroke Indexed InsideFill InsideColorFill ColorStrokeGray" data-item-index="3" data-renderer-id="0" transform="translate(393, 231)"><g id="tx_gestoder_18efhrptql8u8-fill" stroke="none" fill="#2C2C2C"><g><text style="font: 20px Roboto, sans-serif; white-space: pre;" font-weight="20px" font-size="Roboto," font-family="sans-serif"><tspan x="16.43" y="34" dominant-baseline="ideographic">Gestão de </tspan><tspan x="31.68" y="58" dominant-baseline="ideographic">Riscos</tspan></text></g></g></g><g id="g-root--1.cu-1_sy_1uuw4oltqjua2-stroke" data-item-order="999807908" data-item-id="-1.cu-1_sy_1uuw4oltqjua2" data-item-class="Part Fill Stroke ColorFillBlack ColorStrokeBlack" data-item-index="-1" data-renderer-id="0" transform="translate(3, 3)"><g id="-1.cu-1_sy_1uuw4oltqjua2-stroke" fill="none" stroke-linecap="round" stroke-linejoin="round" stroke-miterlimit="4" stroke="#666666" stroke-width="2"><g><path d="M 286 10L 562 130L 550 154L 22 154L 10 130L 286 10ZM 562 358L 10 358L 22 334L 550 334L 562 358Z"></path></g></g></g><g id="g-root--1.cu-1_sy_1uuw4oltqjua2-stroke" data-item-order="999807908" data-item-id="-1.cu-1_sy_1uuw4oltqjua2" data-item-class="Part Fill Stroke ColorFillBlack ColorStrokeBlack" data-item-index="-1" data-renderer-id="0" transform="translate(3, 3)"><g id="-1.cu-1_sy_1uuw4oltqjua2-stroke" fill="none" stroke-linecap="round" stroke-linejoin="round" stroke-miterlimit="4" stroke="#666666" stroke-width="2"><g><path d="M 286 10L 562 130L 550 154L 22 154L 10 130L 286 10ZM 562 358L 10 358L 22 334L 550 334L 562 358Z"></path></g></g></g><g id="g-root-3.cu_sy_1q5pi9htql6h1-stroke" data-item-order="999807910" data-item-id="3.cu_sy_1q5pi9htql6h1" data-item-class="Part Indexed Fill Stroke ColorStrokeGray" data-item-index="3" data-renderer-id="0" transform="translate(363, 147)"><g id="3.cu_sy_1q5pi9htql6h1-stroke" fill="none" stroke-linecap="round" stroke-linejoin="round" stroke-miterlimit="4" stroke="#2C2C2C" stroke-width="2"><g><path d="M 10 190L 178 190L 178 10L 10 10L 10 190Z"></path></g></g></g><g id="g-root-3.cu_sy_1q5pi9htql6h1-stroke" data-item-order="999807910" data-item-id="3.cu_sy_1q5pi9htql6h1" data-item-class="Part Indexed Fill Stroke ColorStrokeGray" data-item-index="3" data-renderer-id="0" transform="translate(363, 147)"><g id="3.cu_sy_1q5pi9htql6h1-stroke" fill="none" stroke-linecap="round" stroke-linejoin="round" stroke-miterlimit="4" stroke="#2C2C2C" stroke-width="2"><g><path d="M 10 190L 178 190L 178 10L 10 10L 10 190Z"></path></g></g></g><g id="g-root-2.cu_sy_1q5pi9htql6h0-stroke" data-item-order="999807912" data-item-id="2.cu_sy_1q5pi9htql6h0" data-item-class="Part Indexed Fill Stroke ColorStrokeGray" data-item-index="2" data-renderer-id="0" transform="translate(195, 147)"><g id="2.cu_sy_1q5pi9htql6h0-stroke" fill="none" stroke-linecap="round" stroke-linejoin="round" stroke-miterlimit="4" stroke="#2C2C2C" stroke-width="2"><g><path d="M 10 190L 94 190L 178 190L 178 10L 10 10L 10 190Z"></path></g></g></g><g id="g-root-2.cu_sy_1q5pi9htql6h0-stroke" data-item-order="999807912" data-item-id="2.cu_sy_1q5pi9htql6h0" data-item-class="Part Indexed Fill Stroke ColorStrokeGray" data-item-index="2" data-renderer-id="0" transform="translate(195, 147)"><g id="2.cu_sy_1q5pi9htql6h0-stroke" fill="none" stroke-linecap="round" stroke-linejoin="round" stroke-miterlimit="4" stroke="#2C2C2C" stroke-width="2"><g><path d="M 10 190L 94 190L 178 190L 178 10L 10 10L 10 190Z"></path></g></g></g><g id="g-root-1.cu_sy_1q5pi9htql6gz-stroke" data-item-order="999807914" data-item-id="1.cu_sy_1q5pi9htql6gz" data-item-class="Part Indexed Indexed_1 Fill Stroke ColorStrokeGray" data-item-index="1" data-renderer-id="0" transform="translate(27, 147)"><g id="1.cu_sy_1q5pi9htql6gz-stroke" fill="none" stroke-linecap="round" stroke-linejoin="round" stroke-miterlimit="4" stroke="#2C2C2C" stroke-width="2"><g><path d="M 10 190L 178 190L 178 10L 10 10L 10 190Z"></path></g></g></g><g id="g-root-1.cu_sy_1q5pi9htql6gz-stroke" data-item-order="999807914" data-item-id="1.cu_sy_1q5pi9htql6gz" data-item-class="Part Indexed Indexed_1 Fill Stroke ColorStrokeGray" data-item-index="1" data-renderer-id="0" transform="translate(27, 147)"><g id="1.cu_sy_1q5pi9htql6gz-stroke" fill="none" stroke-linecap="round" stroke-linejoin="round" stroke-miterlimit="4" stroke="#2C2C2C" stroke-width="2"><g><path d="M 10 190L 178 190L 178 10L 10 10L 10 190Z"></path></g></g></g><g id="g-root-2_1lrrik5tq1ibr-stroke" data-item-order="1000000000" data-item-id="2_1lrrik5tq1ibr" data-item-class="Icon Stroke Title InsideFill InsideColorFill InsideBlackFill ColorFillBlack ColorStrokeGray" data-item-index="none" data-renderer-id="0" transform="translate(255, 27)"><g id="2_1lrrik5tq1ibr-stroke" fill="none" stroke-linecap="round" stroke-linejoin="round" stroke-miterlimit="4" stroke="#A3A3A3" stroke-width="2"><g><path d="M 57 49C 57 51.209141 55.209141 53 53 53L 15 53C 12.790861 53 11 51.209141 11 49L 11 47L 57 47ZM 15 53L 15 57M 53 53L 53 57M 34 47L 24 47L 24 13C 24 11.895431 24.895432 11 26 11L 32 11C 33.104568 11 34 11.895431 34 13ZM 44.287998 47L 40.312 14.188C 40.179146 13.091783 40.959839 12.095322 42.056 11.962L 48.012001 11.24C 49.10891 11.107193 50.105686 11.88903 50.237999 12.986L 54.360001 47M 40 47L 34 47L 34 17L 38 17C 39.104568 17 40 17.895432 40 19ZM 24 47L 14 47L 14 13C 14 11.895431 14.895431 11 16 11L 22 11C 23.104568 11 24 11.895431 24 13ZM 28 41L 30 41M 18 41L 20 41M 19 17L 19 35M 29 17L 29 35M 46 37C 46 38.104568 46.895432 39 48 39C 49.104568 39 50 38.104568 50 37C 50 35.895432 49.104568 35 48 35C 46.895432 35 46 35.895432 46 37Z"></path></g></g></g><g id="g-root-tx_acordode_v3lghhtql79d-stroke" data-item-order="1000000000" data-item-id="tx_acordode_v3lghhtql79d" data-item-class="Label Stroke Title InsideFill InsideColorFill InsideBlackFill ColorFillBlack ColorStrokeGray" data-item-index="none" data-renderer-id="0" transform="translate(189, 99)"></g><g id="g-root-1_1hby0fptq1j40-stroke" data-item-order="1000000000" data-item-id="1_1hby0fptq1j40" data-item-class="Icon Stroke Indexed Indexed_1 InsideFill InsideColorFill ColorStrokeGray" data-item-index="1" data-renderer-id="0" transform="translate(87, 171)"><g id="1_1hby0fptq1j40-stroke" fill="none" stroke-linecap="round" stroke-linejoin="round" stroke-miterlimit="4" stroke="#2C2C2C" stroke-width="2"><g><path d="M 13 51L 27 51C 28.10457 51 29 51.895432 29 53L 29 56C 29 56.552284 28.552284 57 28 57L 12 57C 11.447716 57 11 56.552284 11 56L 11 53C 11 51.895432 11.895431 51 13 51ZM 22.501999 30.118C 21.52556 29.14156 21.52556 27.558439 22.501999 26.582001C 23.478439 25.60556 25.061562 25.60556 26.038 26.582001L 35.237999 35.781998C 36.214439 36.758438 36.214439 38.34156 35.237999 39.318001C 34.261559 40.294441 32.67844 40.294441 31.702 39.318001ZM 37.351997 15.268C 36.375561 14.291561 36.375561 12.708439 37.351997 11.732C 38.328438 10.755561 39.91156 10.755561 40.888 11.732L 50.088001 20.931999C 51.06189 21.910706 51.058147 23.493549 50.079639 24.46764C 49.101131 25.44173 47.518288 25.438309 46.543999 24.459999ZM 26.392054 26.93326L 37.705765 15.619553L 46.191044 24.104832L 34.877335 35.418541ZM 39.120003 31.177999L 51.848 45.32C 53.025139 46.456921 54.896259 46.440662 56.053459 45.283459C 57.210663 44.126259 57.226921 42.255138 56.09 41.078003L 41.947998 28.35"></path></g></g></g><g id="g-root-docu_147cmuttqmm0y-stroke" data-item-order="1000000000" data-item-id="docu_147cmuttqmm0y" data-item-class="Icon Stroke Indexed InsideFill InsideColorFill ColorStrokeGray" data-item-index="2" data-renderer-id="0" transform="translate(255, 171)"><g id="docu_147cmuttqmm0y-stroke" fill="none" stroke-linecap="round" stroke-linejoin="round" stroke-miterlimit="4" stroke="#2C2C2C" stroke-width="2"><g><path d="M 21.880001 53.444L 14.566 53.444C 13.416143 53.444 12.484 52.511856 12.484 51.362L 12.484 13.082C 12.484 11.932143 13.416143 11 14.566 11L 42.377998 11C 43.527859 11 44.459999 11.932143 44.459999 13.082L 44.459999 18.694M 30.768 30.07C 30.76754 32.660542 32.867458 34.760834 35.458 34.760834C 38.048538 34.760834 40.14846 32.660542 40.148003 30.07C 40.14846 27.47946 38.048538 25.379166 35.458 25.379166C 32.867458 25.379166 30.76754 27.47946 30.768 30.07M 45.484001 44.68C 42.566002 34.958 28.049999 35.456001 25.139999 45.155998M 19.026001 36.795998C 19.026001 45.790508 26.31749 53.081997 35.312 53.081997C 44.306507 53.081997 51.598 45.790508 51.598 36.795998C 51.598 27.801491 44.306507 20.51 35.312 20.51C 26.31749 20.51 19.026001 27.801491 19.026001 36.795998M 46.826 48.312L 55.515999 57M 35.312 41.393997L 35.312 43.992001M 31.986 26.93C 33.356003 30.07 36.827999 30.972 40.148003 30.07"></path></g></g></g><g id="g-root-1_18n64z9tqml8p-stroke" data-item-order="1000000000" data-item-id="1_18n64z9tqml8p" data-item-class="Icon Stroke Indexed InsideFill InsideColorFill ColorStrokeGray" data-item-index="3" data-renderer-id="0" transform="translate(423, 171)"><g id="1_18n64z9tqml8p-stroke" fill="none" stroke-linecap="round" stroke-linejoin="round" stroke-miterlimit="4" stroke="#2C2C2C" stroke-width="2"><g><path d="M 13.007999 13L 29.007999 13C 29.007999 13 30.007999 13 30.007999 14L 30.007999 18C 30.007999 18 30.007999 19 29.007999 19L 13.007999 19C 13.007999 19 12.007999 19 12.007999 18L 12.007999 14C 12.007999 14 12.007999 13 13.007999 13M 17.007999 19L 33.007999 19C 33.007999 19 34.007999 19 34.007999 20L 34.007999 24C 34.007999 24 34.007999 25 33.007999 25L 17.007999 25C 17.007999 25 16.007999 25 16.007999 24L 16.007999 20C 16.007999 20 16.007999 19 17.007999 19M 15.007999 25L 31.007999 25C 31.007999 25 32.007999 25 32.007999 26L 32.007999 30C 32.007999 30 32.007999 31 31.007999 31L 15.007999 31C 15.007999 31 14.007999 31 14.007999 30L 14.007999 26C 14.007999 26 14.007999 25 15.007999 25M 13.007999 31L 29.007999 31C 29.007999 31 30.007999 31 30.007999 32L 30.007999 36C 30.007999 36 30.007999 37 29.007999 37L 13.007999 37C 13.007999 37 12.007999 37 12.007999 36L 12.007999 32C 12.007999 32 12.007999 31 13.007999 31M 15.007999 37L 31.007999 37C 31.007999 37 32.007999 37 32.007999 38L 32.007999 42C 32.007999 42 32.007999 43 31.007999 43L 15.007999 43C 15.007999 43 14.007999 43 14.007999 42L 14.007999 38C 14.007999 38 14.007999 37 15.007999 37M 13.007999 43L 29.007999 43C 29.007999 43 30.007999 43 30.007999 44L 30.007999 48C 30.007999 48 30.007999 49 29.007999 49L 13.007999 49C 13.007999 49 12.007999 49 12.007999 48L 12.007999 44C 12.007999 44 12.007999 43 13.007999 43M 15.007999 49L 31.007999 49C 31.007999 49 32.007999 49 32.007999 50L 32.007999 54C 32.007999 54 32.007999 55 31.007999 55L 15.007999 55C 15.007999 55 14.007999 55 14.007999 54L 14.007999 50C 14.007999 50 14.007999 49 15.007999 49M 37.007999 37L 53.007999 37C 53.007999 37 54.007999 37 54.007999 38L 54.007999 42C 54.007999 42 54.007999 43 53.007999 43L 37.007999 43C 37.007999 43 36.007999 43 36.007999 42L 36.007999 38C 36.007999 38 36.007999 37 37.007999 37M 39.007999 43L 55.007999 43C 55.007999 43 56.007999 43 56.007999 44L 56.007999 48C 56.007999 48 56.007999 49 55.007999 49L 39.007999 49C 39.007999 49 38.007999 49 38.007999 48L 38.007999 44C 38.007999 44 38.007999 43 39.007999 43M 37.007999 49L 53.007999 49C 53.007999 49 54.007999 49 54.007999 50L 54.007999 54C 54.007999 54 54.007999 55 53.007999 55L 37.007999 55C 37.007999 55 36.007999 55 36.007999 54L 36.007999 50C 36.007999 50 36.007999 49 37.007999 49"></path></g></g></g><g id="g-root-tx_estrutur_1ha2i0ltql79q-stroke" data-item-order="1000000000" data-item-id="tx_estrutur_1ha2i0ltql79q" data-item-class="Label Stroke Indexed Indexed_1 InsideFill InsideColorFill ColorStrokeGray" data-item-index="1" data-renderer-id="0" transform="translate(57, 231)"></g><g id="g-root-tx_prticasd_1cu8zw5tql81z-stroke" data-item-order="1000000000" data-item-id="tx_prticasd_1cu8zw5tql81z" data-item-class="Label Stroke Indexed InsideFill InsideColorFill ColorStrokeGray" data-item-index="2" data-renderer-id="0" transform="translate(219, 231)"></g><g id="g-root-tx_gestoder_18efhrptql8u8-stroke" data-item-order="1000000000" data-item-id="tx_gestoder_18efhrptql8u8" data-item-class="Label Stroke Indexed InsideFill InsideColorFill ColorStrokeGray" data-item-index="3" data-renderer-id="0" transform="translate(393, 231)"></g></g></g></svg>