<?xml version="1.0" encoding="utf-8" standalone="yes"?>
<!DOCTYPE svg PUBLIC "-//W3C//DTD SVG 1.1//EN" "http://www.w3.org/Graphics/SVG/1.1/DTD/svg11.dtd">
<svg width="531" height="601" viewBox="0 0 531 601" style="fill:none;stroke:none;fill-rule:evenodd;clip-rule:evenodd;stroke-linecap:round;stroke-linejoin:round;stroke-miterlimit:1.5;" version="1.1" xmlns="http://www.w3.org/2000/svg" xmlns:xlink="http://www.w3.org/1999/xlink"><style id="fontImports">@import url("https://fonts.googleapis.com/css2?family=Roboto:wght@400;700&amp;display=block");</style><g id="items" style="isolation: isolate"><g id="blend" style="mix-blend-mode:normal"><g id="g-root-3.cu_sy_1lr63dhqoo9vx-fill" data-item-order="999727845" data-item-id="3.cu_sy_1lr63dhqoo9vx" data-item-class="Part Indexed Stroke" data-item-index="3" data-renderer-id="0" transform="translate(3, 145.99899291992188)"></g><g id="g-root-3.cu_sy_1lr63dhqoo9vx-fill" data-item-order="999727845" data-item-id="3.cu_sy_1lr63dhqoo9vx" data-item-class="Part Indexed Stroke" data-item-index="3" data-renderer-id="0" transform="translate(3, 145.99899291992188)"></g><g id="g-root-2.cu_sy_1umt3mdqoo938-fill" data-item-order="999727847" data-item-id="2.cu_sy_1umt3mdqoo938" data-item-class="Part Indexed Stroke" data-item-index="2" data-renderer-id="0" transform="translate(255.00048828125, 38)"></g><g id="g-root-2.cu_sy_1umt3mdqoo938-fill" data-item-order="999727847" data-item-id="2.cu_sy_1umt3mdqoo938" data-item-class="Part Indexed Stroke" data-item-index="2" data-renderer-id="0" transform="translate(255.00048828125, 38)"></g><g id="g-root-1.cu_sy_1umt3mdqoo937-fill" data-item-order="999727848" data-item-id="1.cu_sy_1umt3mdqoo937" data-item-class="Part Indexed Indexed_1 Fill Stroke" data-item-index="1" data-renderer-id="0" transform="translate(225.00048828125, 62)"><g id="1.cu_sy_1umt3mdqoo937-fill" stroke="none" fill="#505050"><g><path d="M 10 34L 28 10L 28 18L 52 18L 52 10L 70 34L 52 58L 52 50L 28 50L 28 58L 10 34Z"></path></g></g></g><g id="g-root-1.cu_sy_1umt3mdqoo937-fill" data-item-order="999727848" data-item-id="1.cu_sy_1umt3mdqoo937" data-item-class="Part Indexed Indexed_1 Fill Stroke" data-item-index="1" data-renderer-id="0" transform="translate(225.00048828125, 62)"><g id="1.cu_sy_1umt3mdqoo937-fill" stroke="none" fill="#505050"><g><path d="M 10 34L 28 10L 28 18L 52 18L 52 10L 70 34L 52 58L 52 50L 28 50L 28 58L 10 34Z"></path></g></g></g><g id="g-root-tx_contras_909xg5qoo8w1-fill" data-item-order="1000000000" data-item-id="tx_contras_909xg5qoo8w1" data-item-class="Label Stroke" data-item-index="none" data-renderer-id="0" transform="translate(363.00048828125, 74)"><g id="tx_contras_909xg5qoo8w1-fill" stroke="none" fill="#A3A3A3"><g><text style="font: 20px Roboto, sans-serif; white-space: pre;" font-weight="20px" font-size="Roboto," font-family="sans-serif"><tspan x="12" y="34" dominant-baseline="ideographic">Contras</tspan></text></g></g></g><g id="g-root-tx_prs_4mx79qoo9oq-fill" data-item-order="1000000000" data-item-id="tx_prs_4mx79qoo9oq" data-item-class="Label Stroke" data-item-index="none" data-renderer-id="0" transform="translate(63.00048828125, 74)"><g id="tx_prs_4mx79qoo9oq-fill" stroke="none" fill="#A3A3A3"><g><text style="font: 20px Roboto, sans-serif; white-space: pre;" font-weight="20px" font-size="Roboto," font-family="sans-serif"><tspan x="12" y="34" dominant-baseline="ideographic">Prós</tspan></text></g></g></g><g id="g-root-1_de80b9qor1fy-fill" data-item-order="1000000000" data-item-id="1_de80b9qor1fy" data-item-class="Icon Stroke Indexed Indexed_1" data-item-index="1" data-renderer-id="0" transform="translate(3.00048828125, 182)"></g><g id="g-root-tx_diversif_dfgyhhqoob9k-fill" data-item-order="1000000000" data-item-id="tx_diversif_dfgyhhqoob9k" data-item-class="Label Stroke Indexed Indexed_1" data-item-index="1" data-renderer-id="0" transform="translate(63.00048828125, 194)"><g id="tx_diversif_dfgyhhqoob9k-fill" stroke="none" fill="#A3A3A3"><g><text style="font: 20px Roboto, sans-serif; white-space: pre;" font-weight="20px" font-size="Roboto," font-family="sans-serif"><tspan x="12" y="34" dominant-baseline="ideographic">Diversificação</tspan></text></g></g></g><g id="g-root-decr_8yei6tqor288-fill" data-item-order="1000000000" data-item-id="decr_8yei6tqor288" data-item-class="Icon Stroke Indexed" data-item-index="101" data-renderer-id="0" transform="translate(303.00048828125, 182)"></g><g id="g-root-tx_riscodem_18hl09hqooah7-fill" data-item-order="1000000000" data-item-id="tx_riscodem_18hl09hqooah7" data-item-class="Label Stroke Indexed" data-item-index="101" data-renderer-id="0" transform="translate(363.00048828125, 182)"><g id="tx_riscodem_18hl09hqooah7-fill" stroke="none" fill="#A3A3A3"><g><text style="font: 20px Roboto, sans-serif; white-space: pre;" font-weight="20px" font-size="Roboto," font-family="sans-serif"><tspan x="12" y="34" dominant-baseline="ideographic">Risco de </tspan><tspan x="12" y="58" dominant-baseline="ideographic">mercado</tspan></text></g></g></g><g id="g-root-decr_1uo21slqor3m1-fill" data-item-order="1000000000" data-item-id="decr_1uo21slqor3m1" data-item-class="Icon Stroke Indexed" data-item-index="2" data-renderer-id="0" transform="translate(3.00048828125, 266)"></g><g id="g-root-tx_rendapas_hvaglxqooahb-fill" data-item-order="1000000000" data-item-id="tx_rendapas_hvaglxqooahb" data-item-class="Label Stroke Indexed" data-item-index="2" data-renderer-id="0" transform="translate(63.00048828125, 278)"><g id="tx_rendapas_hvaglxqooahb-fill" stroke="none" fill="#A3A3A3"><g><text style="font: 20px Roboto, sans-serif; white-space: pre;" font-weight="20px" font-size="Roboto," font-family="sans-serif"><tspan x="12" y="34" dominant-baseline="ideographic">Renda passiva</tspan></text></g></g></g><g id="g-root-2_1q6zlhxqor281-fill" data-item-order="1000000000" data-item-id="2_1q6zlhxqor281" data-item-class="Icon Stroke Indexed" data-item-index="102" data-renderer-id="0" transform="translate(303.00048828125, 266)"></g><g id="g-root-tx_taxasecu_1hd80idqoo9oi-fill" data-item-order="1000000000" data-item-id="tx_taxasecu_1hd80idqoo9oi" data-item-class="Label Stroke Indexed" data-item-index="102" data-renderer-id="0" transform="translate(363.00048828125, 278)"><g id="tx_taxasecu_1hd80idqoo9oi-fill" stroke="none" fill="#A3A3A3"><g><text style="font: 20px Roboto, sans-serif; white-space: pre;" font-weight="20px" font-size="Roboto," font-family="sans-serif"><tspan x="12" y="34" dominant-baseline="ideographic">Taxas e custos</tspan></text></g></g></g><g id="g-root-incr_8yei6tqor287-fill" data-item-order="1000000000" data-item-id="incr_8yei6tqor287" data-item-class="Icon Stroke Indexed" data-item-index="3" data-renderer-id="0" transform="translate(3.00048828125, 350)"></g><g id="g-root-tx_acessoag_qqxgutqoo9om-fill" data-item-order="1000000000" data-item-id="tx_acessoag_qqxgutqoo9om" data-item-class="Label Stroke Indexed" data-item-index="3" data-renderer-id="0" transform="translate(63.00048828125, 350)"><g id="tx_acessoag_qqxgutqoo9om-fill" stroke="none" fill="#A3A3A3"><g><text style="font: 20px Roboto, sans-serif; white-space: pre;" font-weight="20px" font-size="Roboto," font-family="sans-serif"><tspan x="12" y="34" dominant-baseline="ideographic">Acesso a grandes </tspan><tspan x="12" y="58" dominant-baseline="ideographic">empreendimentos</tspan></text></g></g></g><g id="g-root-2_140ijytqor1fv-fill" data-item-order="1000000000" data-item-id="2_140ijytqor1fv" data-item-class="Icon Stroke Indexed" data-item-index="103" data-renderer-id="0" transform="translate(303.00048828125, 350)"></g><g id="g-root-tx_volatili_2rhxxqooao7-fill" data-item-order="1000000000" data-item-id="tx_volatili_2rhxxqooao7" data-item-class="Label Stroke Indexed" data-item-index="105" data-renderer-id="0" transform="translate(363.00048828125, 530)"><g id="tx_volatili_2rhxxqooao7-fill" stroke="none" fill="#A3A3A3"><g><text style="font: 20px Roboto, sans-serif; white-space: pre;" font-weight="20px" font-size="Roboto," font-family="sans-serif"><tspan x="12" y="34" dominant-baseline="ideographic">Volatilidade</tspan></text></g></g></g><g id="g-root-doll_m98jh1qor3t1-fill" data-item-order="1000000000" data-item-id="doll_m98jh1qor3t1" data-item-class="Icon Stroke Indexed" data-item-index="4" data-renderer-id="0" transform="translate(3.00048828125, 434)"></g><g id="g-root-tx_liquidez_v6qyz9qoo8wd-fill" data-item-order="1000000000" data-item-id="tx_liquidez_v6qyz9qoo8wd" data-item-class="Label Stroke Indexed" data-item-index="4" data-renderer-id="0" transform="translate(63.00048828125, 446)"><g id="tx_liquidez_v6qyz9qoo8wd-fill" stroke="none" fill="#A3A3A3"><g><text style="font: 20px Roboto, sans-serif; white-space: pre;" font-weight="20px" font-size="Roboto," font-family="sans-serif"><tspan x="12" y="34" dominant-baseline="ideographic">Liquidez</tspan></text></g></g></g><g id="g-root-expa_1hbcl91qor30q-fill" data-item-order="1000000000" data-item-id="expa_1hbcl91qor30q" data-item-class="Icon Stroke Indexed" data-item-index="104" data-renderer-id="0" transform="translate(303.00048828125, 434)"></g><g id="g-root-tx_menorcon_1lt1imtqoo8w8-fill" data-item-order="1000000000" data-item-id="tx_menorcon_1lt1imtqoo8w8" data-item-class="Label Stroke Indexed" data-item-index="104" data-renderer-id="0" transform="translate(363.00048828125, 446)"><g id="tx_menorcon_1lt1imtqoo8w8-fill" stroke="none" fill="#A3A3A3"><g><text style="font: 20px Roboto, sans-serif; white-space: pre;" font-weight="20px" font-size="Roboto," font-family="sans-serif"><tspan x="12" y="34" dominant-baseline="ideographic">Menor controle</tspan></text></g></g></g><g id="g-root-docu_qp21lhqor30s-fill" data-item-order="1000000000" data-item-id="docu_qp21lhqor30s" data-item-class="Icon Stroke Indexed" data-item-index="5" data-renderer-id="0" transform="translate(3.00048828125, 518)"></g><g id="g-root-tx_benefcio_141ri51qoob9g-fill" data-item-order="1000000000" data-item-id="tx_benefcio_141ri51qoob9g" data-item-class="Label Stroke Indexed" data-item-index="5" data-renderer-id="0" transform="translate(63.00048828125, 518)"><g id="tx_benefcio_141ri51qoob9g-fill" stroke="none" fill="#A3A3A3"><g><text style="font: 20px Roboto, sans-serif; white-space: pre;" font-weight="20px" font-size="Roboto," font-family="sans-serif"><tspan x="12" y="34" dominant-baseline="ideographic">Benefícios </tspan><tspan x="12" y="58" dominant-baseline="ideographic">fiscais</tspan></text></g></g></g><g id="g-root-line_4gpkt1qor400-fill" data-item-order="1000000000" data-item-id="line_4gpkt1qor400" data-item-class="Icon Stroke Indexed" data-item-index="105" data-renderer-id="0" transform="translate(303.00048828125, 518)"></g><g id="g-root-tx_investir_1lr63dhqoo9vy-fill" data-item-order="1000000000" data-item-id="tx_investir_1lr63dhqoo9vy" data-item-class="Label Stroke" data-item-index="none" data-renderer-id="0" transform="translate(183.00048828125, 2)"><g id="tx_investir_1lr63dhqoo9vy-fill" stroke="none" fill="#A3A3A3"><g><text style="font: 20px Roboto, sans-serif; white-space: pre;" font-weight="20px" font-size="Roboto," font-family="sans-serif"><tspan x="14.31" y="34" dominant-baseline="ideographic">Investir em FIIs</tspan></text></g></g></g><g id="g-root-tx_dependnc_1lt1imtqoo8w9-fill" data-item-order="1000000000" data-item-id="tx_dependnc_1lt1imtqoo8w9" data-item-class="Label Stroke Indexed" data-item-index="103" data-renderer-id="0" transform="translate(363.00048828125, 350)"><g id="tx_dependnc_1lt1imtqoo8w9-fill" stroke="none" fill="#A3A3A3"><g><text style="font: 20px Roboto, sans-serif; white-space: pre;" font-weight="20px" font-size="Roboto," font-family="sans-serif"><tspan x="12" y="34" dominant-baseline="ideographic">Dependência </tspan><tspan x="12" y="58" dominant-baseline="ideographic">da gestão</tspan></text></g></g></g><g id="g-root-3.cu_sy_1lr63dhqoo9vx-stroke" data-item-order="999727845" data-item-id="3.cu_sy_1lr63dhqoo9vx" data-item-class="Part Indexed Stroke" data-item-index="3" data-renderer-id="0" transform="translate(3, 145.99899291992188)"><g id="3.cu_sy_1lr63dhqoo9vx-stroke" fill="none" stroke-linecap="round" stroke-linejoin="round" stroke-miterlimit="4" stroke="#A3A3A3" stroke-width="2"><g><path d="M 514.0005 10.000007L 10 10.001007"></path></g></g></g><g id="g-root-3.cu_sy_1lr63dhqoo9vx-stroke" data-item-order="999727845" data-item-id="3.cu_sy_1lr63dhqoo9vx" data-item-class="Part Indexed Stroke" data-item-index="3" data-renderer-id="0" transform="translate(3, 145.99899291992188)"><g id="3.cu_sy_1lr63dhqoo9vx-stroke" fill="none" stroke-linecap="round" stroke-linejoin="round" stroke-miterlimit="4" stroke="#A3A3A3" stroke-width="2"><g><path d="M 514.0005 10.000007L 10 10.001007"></path></g></g></g><g id="g-root-2.cu_sy_1umt3mdqoo938-stroke" data-item-order="999727847" data-item-id="2.cu_sy_1umt3mdqoo938" data-item-class="Part Indexed Stroke" data-item-index="2" data-renderer-id="0" transform="translate(255.00048828125, 38)"><g id="2.cu_sy_1umt3mdqoo938-stroke" fill="none" stroke-linecap="round" stroke-linejoin="round" stroke-miterlimit="4" stroke="#A3A3A3" stroke-width="2"><g><path d="M 10 298L 10 214M 10 382L 10 298M 10 466L 10 382M 10 550L 10 466M 10 214L 10 118M 10 118L 10 80M 10 36L 10 10"></path></g></g></g><g id="g-root-2.cu_sy_1umt3mdqoo938-stroke" data-item-order="999727847" data-item-id="2.cu_sy_1umt3mdqoo938" data-item-class="Part Indexed Stroke" data-item-index="2" data-renderer-id="0" transform="translate(255.00048828125, 38)"><g id="2.cu_sy_1umt3mdqoo938-stroke" fill="none" stroke-linecap="round" stroke-linejoin="round" stroke-miterlimit="4" stroke="#A3A3A3" stroke-width="2"><g><path d="M 10 298L 10 214M 10 382L 10 298M 10 466L 10 382M 10 550L 10 466M 10 214L 10 118M 10 118L 10 80M 10 36L 10 10"></path></g></g></g><g id="g-root-1.cu_sy_1umt3mdqoo937-stroke" data-item-order="999727848" data-item-id="1.cu_sy_1umt3mdqoo937" data-item-class="Part Indexed Indexed_1 Fill Stroke" data-item-index="1" data-renderer-id="0" transform="translate(225.00048828125, 62)"><g id="1.cu_sy_1umt3mdqoo937-stroke" fill="none" stroke-linecap="round" stroke-linejoin="round" stroke-miterlimit="4" stroke="#A3A3A3" stroke-width="2"><g><path d="M 10 34L 28 10L 28 18L 52 18L 52 10L 70 34L 52 58L 52 50L 28 50L 28 58L 10 34Z"></path></g></g><g id="1.cu_sy_1umt3mdqoo937-stroke" fill="none" stroke-linecap="round" stroke-linejoin="round" stroke-miterlimit="4" stroke="#A3A3A3" stroke-width="2"><g><path d="M 30.599 28.373L 34.999 39.48M 35.199 39.097L 39.599 28.66M 49.399 30.192C 49.065 29.937 48.732 29.682 48.399 29.426C 47.799 28.852 46.832 28.628 45.499 28.756C 44.165 28.884 43.465 29.522 43.399 30.671C 43.265 31.82 44.232 32.905 46.299 33.927C 48.432 34.884 49.465 36.001 49.399 37.278C 49.399 38.555 48.632 39.321 47.099 39.576C 45.499 39.767 44.432 39.416 43.899 38.523C 43.565 38.076 43.265 37.629 42.999 37.182"></path></g></g></g><g id="g-root-1.cu_sy_1umt3mdqoo937-stroke" data-item-order="999727848" data-item-id="1.cu_sy_1umt3mdqoo937" data-item-class="Part Indexed Indexed_1 Fill Stroke" data-item-index="1" data-renderer-id="0" transform="translate(225.00048828125, 62)"><g id="1.cu_sy_1umt3mdqoo937-stroke" fill="none" stroke-linecap="round" stroke-linejoin="round" stroke-miterlimit="4" stroke="#A3A3A3" stroke-width="2"><g><path d="M 10 34L 28 10L 28 18L 52 18L 52 10L 70 34L 52 58L 52 50L 28 50L 28 58L 10 34Z"></path></g></g><g id="1.cu_sy_1umt3mdqoo937-stroke" fill="none" stroke-linecap="round" stroke-linejoin="round" stroke-miterlimit="4" stroke="#A3A3A3" stroke-width="2"><g><path d="M 30.599 28.373L 34.999 39.48M 35.199 39.097L 39.599 28.66M 49.399 30.192C 49.065 29.937 48.732 29.682 48.399 29.426C 47.799 28.852 46.832 28.628 45.499 28.756C 44.165 28.884 43.465 29.522 43.399 30.671C 43.265 31.82 44.232 32.905 46.299 33.927C 48.432 34.884 49.465 36.001 49.399 37.278C 49.399 38.555 48.632 39.321 47.099 39.576C 45.499 39.767 44.432 39.416 43.899 38.523C 43.565 38.076 43.265 37.629 42.999 37.182"></path></g></g></g><g id="g-root-tx_contras_909xg5qoo8w1-stroke" data-item-order="1000000000" data-item-id="tx_contras_909xg5qoo8w1" data-item-class="Label Stroke" data-item-index="none" data-renderer-id="0" transform="translate(363.00048828125, 74)"></g><g id="g-root-tx_prs_4mx79qoo9oq-stroke" data-item-order="1000000000" data-item-id="tx_prs_4mx79qoo9oq" data-item-class="Label Stroke" data-item-index="none" data-renderer-id="0" transform="translate(63.00048828125, 74)"></g><g id="g-root-1_de80b9qor1fy-stroke" data-item-order="1000000000" data-item-id="1_de80b9qor1fy" data-item-class="Icon Stroke Indexed Indexed_1" data-item-index="1" data-renderer-id="0" transform="translate(3.00048828125, 182)"><g id="1_de80b9qor1fy-stroke" fill="none" stroke-linecap="round" stroke-linejoin="round" stroke-miterlimit="4" stroke="#A3A3A3" stroke-width="2"><g><path d="M 31 17C 19.954306 17 11.000001 25.954306 11.000001 37C 11.000001 48.045696 19.954306 57 31 57C 42.045696 57 51 48.045696 51 37L 32 37C 31.447716 37 31 36.552284 31 36ZM 37 30C 37 30.552284 37.447716 31 38 31L 57 31C 57 19.954304 48.045696 11 37 11Z"></path></g></g></g><g id="g-root-tx_diversif_dfgyhhqoob9k-stroke" data-item-order="1000000000" data-item-id="tx_diversif_dfgyhhqoob9k" data-item-class="Label Stroke Indexed Indexed_1" data-item-index="1" data-renderer-id="0" transform="translate(63.00048828125, 194)"></g><g id="g-root-decr_8yei6tqor288-stroke" data-item-order="1000000000" data-item-id="decr_8yei6tqor288" data-item-class="Icon Stroke Indexed" data-item-index="101" data-renderer-id="0" transform="translate(303.00048828125, 182)"><g id="decr_8yei6tqor288-stroke" fill="none" stroke-linecap="round" stroke-linejoin="round" stroke-miterlimit="4" stroke="#A3A3A3" stroke-width="2"><g><path d="M 15 45.360001L 15 57L 29 57L 29 45.360001M 10 10M 11 49L 20.66 40.220001C 21.421238 39.532963 22.578762 39.532963 23.34 40.220001L 33 49M 21 35L 11 35L 11 25M 35 11L 11 35M 57 57L 29 57M 31 40L 31 27C 31 26.447716 31.447716 26 32 26L 40 26C 40.552284 26 41 26.447716 41 27L 41 57M 47 57L 47 14C 47 13.447716 47.447716 13 48 13L 56 13C 56.552284 13 57 13.447716 57 14L 57 57"></path></g></g></g><g id="g-root-tx_riscodem_18hl09hqooah7-stroke" data-item-order="1000000000" data-item-id="tx_riscodem_18hl09hqooah7" data-item-class="Label Stroke Indexed" data-item-index="101" data-renderer-id="0" transform="translate(363.00048828125, 182)"></g><g id="g-root-decr_1uo21slqor3m1-stroke" data-item-order="1000000000" data-item-id="decr_1uo21slqor3m1" data-item-class="Icon Stroke Indexed" data-item-index="2" data-renderer-id="0" transform="translate(3.00048828125, 266)"><g id="decr_1uo21slqor3m1-stroke" fill="none" stroke-linecap="round" stroke-linejoin="round" stroke-miterlimit="4" stroke="#A3A3A3" stroke-width="2"><g><path d="M 57 48.001999L 57 57.001999L 48 57.001999M 57 57L 46.900002 46.900002C 45.729542 45.729961 44.011681 45.296082 42.426003 45.770004L 31 48.824001C 29.448034 49.239677 27.792191 48.795986 26.656 47.66L 15 36M 27.862 40.884003C 34.179153 40.092514 39.308472 35.39946 40.656902 29.177359C 42.005333 22.955254 39.279068 16.559771 33.856346 13.224068C 28.433626 9.888364 21.495943 10.339223 16.550564 14.348718C 11.605183 18.358212 9.729603 25.052755 11.872 31.048M 17 27.997999L 35 27.997999M 21 33.998001L 21 17.998001L 31 33.998001L 31 17.998001"></path></g></g></g><g id="g-root-tx_rendapas_hvaglxqooahb-stroke" data-item-order="1000000000" data-item-id="tx_rendapas_hvaglxqooahb" data-item-class="Label Stroke Indexed" data-item-index="2" data-renderer-id="0" transform="translate(63.00048828125, 278)"></g><g id="g-root-2_1q6zlhxqor281-stroke" data-item-order="1000000000" data-item-id="2_1q6zlhxqor281" data-item-class="Icon Stroke Indexed" data-item-index="102" data-renderer-id="0" transform="translate(303.00048828125, 266)"><g id="2_1q6zlhxqor281-stroke" fill="none" stroke-linecap="round" stroke-linejoin="round" stroke-miterlimit="4" stroke="#A3A3A3" stroke-width="2"><g><path d="M 31 31L 13 31C 11.895431 31 11 30.10457 11 29L 11 13C 11 11.895431 11.895431 11 13 11L 45 11C 46.104568 11 47 11.895431 47 13L 47 23M 11.008 18L 18.007999 11M 47.007999 18L 40.007999 11M 11.008 24L 18.007999 31M 33 17L 26.691999 17C 25.844688 17.007654 25.134691 17.642994 25.033333 18.484257C 24.931976 19.32552 25.470753 20.111315 26.292 20.32L 31.74 21.68C 32.561249 21.888685 33.100021 22.67448 32.998665 23.515743C 32.897308 24.357006 32.187309 24.992346 31.34 25L 25 25M 29.007999 17L 29.007999 15M 29.007999 27L 29.007999 25M 39.007999 41L 41.007999 41M 45.007999 41L 47.007999 41M 51.007999 41L 53.007999 41M 39.007999 45L 41.007999 45M 45.007999 45L 47.007999 45M 51.007999 45L 53.007999 45M 39.007999 49L 41.007999 49M 45.007999 49L 47.007999 49M 51.007999 49L 53.007999 49M 39.007999 53L 41.007999 53M 45.007999 53L 47.007999 53M 51.007999 53L 53.007999 53M 39.007999 27L 53.007999 27C 53.007999 27 57.007999 27 57.007999 31L 57.007999 53C 57.007999 53 57.007999 57 53.007999 57L 39.007999 57C 39.007999 57 35.007999 57 35.007999 53L 35.007999 31C 35.007999 31 35.007999 27 39.007999 27M 35.007999 37L 57.007999 37M 13.007999 35L 31.007999 35M 15.007999 39L 31.007999 39"></path></g></g></g><g id="g-root-tx_taxasecu_1hd80idqoo9oi-stroke" data-item-order="1000000000" data-item-id="tx_taxasecu_1hd80idqoo9oi" data-item-class="Label Stroke Indexed" data-item-index="102" data-renderer-id="0" transform="translate(363.00048828125, 278)"></g><g id="g-root-incr_8yei6tqor287-stroke" data-item-order="1000000000" data-item-id="incr_8yei6tqor287" data-item-class="Icon Stroke Indexed" data-item-index="3" data-renderer-id="0" transform="translate(3.00048828125, 350)"><g id="incr_8yei6tqor287-stroke" fill="none" stroke-linecap="round" stroke-linejoin="round" stroke-miterlimit="4" stroke="#A3A3A3" stroke-width="2"><g><path d="M 11 41L 16 41M 11 45L 16 45M 31 38L 31 27C 31 26.447716 31.447716 26 32 26L 40 26C 40.552284 26 41 26.447716 41 27L 41 57M 47 57L 47 14C 47 13.447716 47.447716 13 48 13L 56 13C 56.552284 13 57 13.447716 57 14L 57 57M 26 11L 35 11L 35 20M 17 29L 35 11M 57 57L 31 57M 13 35L 21 35C 22.104568 35 23 35.895432 23 37L 23 57L 11 57L 11 37C 11 35.895432 11.895431 35 13 35ZM 32 57L 23 57L 23 43L 30 43C 31.10457 43 32 43.895432 32 45ZM 23 47L 27 47M 23 51L 27 51M 23 37L 23 32"></path></g></g></g><g id="g-root-tx_acessoag_qqxgutqoo9om-stroke" data-item-order="1000000000" data-item-id="tx_acessoag_qqxgutqoo9om" data-item-class="Label Stroke Indexed" data-item-index="3" data-renderer-id="0" transform="translate(63.00048828125, 350)"></g><g id="g-root-2_140ijytqor1fv-stroke" data-item-order="1000000000" data-item-id="2_140ijytqor1fv" data-item-class="Icon Stroke Indexed" data-item-index="103" data-renderer-id="0" transform="translate(303.00048828125, 350)"><g id="2_140ijytqor1fv-stroke" fill="none" stroke-linecap="round" stroke-linejoin="round" stroke-miterlimit="4" stroke="#A3A3A3" stroke-width="2"><g><path d="M 11 44.236C 11 47.199562 13.40244 49.602001 16.366001 49.602001C 19.329559 49.602001 21.732 47.199562 21.732 44.236C 21.732 41.272442 19.329559 38.870003 16.366001 38.870003C 13.40244 38.870003 11 41.272442 11 44.236M 24.83 56.722C 23.733578 54.15427 21.530436 52.223373 18.841097 51.47316C 16.151758 50.722946 13.267247 51.234596 11 52.863998M 46.268002 44.236C 46.268002 47.199562 48.670441 49.602001 51.634003 49.602001C 54.597561 49.602001 57.000004 47.199562 57.000004 44.236C 57.000004 41.272442 54.597561 38.870003 51.634003 38.870003C 48.670441 38.870003 46.268002 41.272442 46.268002 44.236M 43.169998 56.722C 44.266418 54.15427 46.469563 52.223373 49.158901 51.47316C 51.84824 50.722946 54.73275 51.234596 56.999996 52.863998M 27.1 42.702C 27.099024 46.513454 30.188545 49.603767 34 49.603767C 37.811455 49.603767 40.900978 46.513454 40.900002 42.702C 40.900978 38.890545 37.811455 35.800232 34 35.800232C 30.188545 35.800232 27.099024 38.890545 27.1 42.702M 43.169998 56.722C 40.820126 54.140408 37.490913 52.668919 34 52.668919C 30.509081 52.668919 27.179871 54.140408 24.829998 56.721996M 30.934 25.077999C 30.934 26.771305 32.306694 28.144001 34 28.144001C 35.693306 28.144001 37.066002 26.771305 37.066002 25.077999C 37.066002 23.384695 35.693306 22.012001 34 22.012001C 32.306694 22.012001 30.934 23.384695 30.934 25.077999M 28.091999 32.577999L 25.08 33.276001C 23.909945 33.537689 22.705814 33.007095 22.109383 31.967009C 21.512949 30.926922 21.663177 29.619677 22.48 28.742001L 24.582001 26.469999C 25.309984 25.684002 25.309984 24.469999 24.582001 23.684L 22.476 21.414C 21.660423 20.53574 21.510864 19.229115 22.106888 18.189278C 22.702915 17.149443 23.90597 16.618126 25.076 16.878L 28.087999 17.576C 29.13192 17.814625 30.181868 17.202154 30.488001 16.176001L 31.4 13.214C 31.745472 12.063965 32.804195 11.276545 34.004997 11.276545C 35.205803 11.276545 36.264526 12.063965 36.610001 13.214L 37.514 16.184C 37.820133 17.210155 38.870079 17.822624 39.914001 17.584L 42.914001 16.886C 44.084026 16.626125 45.287083 17.157444 45.88311 18.197277C 46.479134 19.237114 46.329575 20.543739 45.513996 21.421999L 43.416 23.684C 42.689945 24.470753 42.689945 25.683243 43.415997 26.469999L 45.523998 28.742001C 46.340824 29.619677 46.491055 30.926922 45.894619 31.967009C 45.298187 33.007095 44.094059 33.537689 42.924 33.276001L 39.924 32.577999M 28.6 38.400002C 31.986273 41.374069 36.396431 42.91465 40.898003 42.696003M 12.152 40.924C 14.800483 43.220455 18.232716 44.406799 21.734001 44.236M 47.417999 40.924C 50.066483 43.220455 53.498718 44.406799 57.000004 44.236"></path></g></g></g><g id="g-root-tx_volatili_2rhxxqooao7-stroke" data-item-order="1000000000" data-item-id="tx_volatili_2rhxxqooao7" data-item-class="Label Stroke Indexed" data-item-index="105" data-renderer-id="0" transform="translate(363.00048828125, 530)"></g><g id="g-root-doll_m98jh1qor3t1-stroke" data-item-order="1000000000" data-item-id="doll_m98jh1qor3t1" data-item-class="Icon Stroke Indexed" data-item-index="4" data-renderer-id="0" transform="translate(3.00048828125, 434)"><g id="doll_m98jh1qor3t1-stroke" fill="none" stroke-linecap="round" stroke-linejoin="round" stroke-miterlimit="4" stroke="#A3A3A3" stroke-width="2"><g><path d="M 29.405714 43.771431C 29.405714 46.068573 31.462858 46.857143 34 46.857143C 36.537144 46.857143 38.594288 46.857143 38.594288 43.771431C 38.594288 39.142857 29.405714 39.142857 29.405714 34.514286C 29.405714 31.428572 31.462858 31.428572 34 31.428572C 36.537144 31.428572 38.594288 32.594288 38.594288 34.514286M 15.142858 22L 52.857143 22C 52.857143 22 56.285713 22 56.285713 25.428572L 56.285713 52.857143C 56.285713 52.857143 56.285713 56.285713 52.857143 56.285713L 15.142858 56.285713C 15.142858 56.285713 11.714286 56.285713 11.714286 52.857143L 11.714286 25.428572C 11.714286 25.428572 11.714286 22 15.142858 22M 44.285713 22L 44.285713 15.142858C 44.285713 13.24931 42.750694 11.714286 40.857143 11.714286L 27.142857 11.714286C 25.24931 11.714286 23.714287 13.24931 23.714287 15.142858L 23.714287 22M 34 31.428572L 34 28.857143M 34 46.857143L 34 49.428574"></path></g></g></g><g id="g-root-tx_liquidez_v6qyz9qoo8wd-stroke" data-item-order="1000000000" data-item-id="tx_liquidez_v6qyz9qoo8wd" data-item-class="Label Stroke Indexed" data-item-index="4" data-renderer-id="0" transform="translate(63.00048828125, 446)"></g><g id="g-root-expa_1hbcl91qor30q-stroke" data-item-order="1000000000" data-item-id="expa_1hbcl91qor30q" data-item-class="Icon Stroke Indexed" data-item-index="104" data-renderer-id="0" transform="translate(303.00048828125, 434)"><g id="expa_1hbcl91qor30q-stroke" fill="none" stroke-linecap="round" stroke-linejoin="round" stroke-miterlimit="4" stroke="#A3A3A3" stroke-width="2"><g><path d="M 48 44.700001C 48.000408 42.925358 48.437233 41.178047 49.271996 39.612L 53.556 31.568001C 54.367149 30.160973 53.911316 28.363935 52.527584 27.513657C 51.143848 26.66338 49.33474 27.068649 48.446003 28.428001L 43 37L 46.234001 19.358C 46.53825 17.757948 45.510258 16.207418 43.917992 15.864745C 42.325726 15.522072 40.7509 16.512445 40.370003 18.096001L 37 33L 37 14C 37 12.343145 35.656853 11 34 11C 32.343147 11 31 12.343145 31 14L 31 33L 27.632 17.366001C 27.283508 15.746149 25.687851 14.715508 24.068001 15.064C 22.448149 15.412492 21.417507 17.008148 21.765999 18.628L 25 41L 19.026001 35.784C 18.238407 35.041412 17.111845 34.780701 16.078093 35.101784C 15.044338 35.422874 14.263725 36.275955 14.035437 37.33408C 13.807148 38.392204 14.16659 39.491257 14.976 40.209999L 25.49 54.209999C 27.187479 55.990654 29.539885 56.998829 32 57L 39 57C 46.110001 57 48 51.445999 48 44.700001Z"></path></g></g></g><g id="g-root-tx_menorcon_1lt1imtqoo8w8-stroke" data-item-order="1000000000" data-item-id="tx_menorcon_1lt1imtqoo8w8" data-item-class="Label Stroke Indexed" data-item-index="104" data-renderer-id="0" transform="translate(363.00048828125, 446)"></g><g id="g-root-docu_qp21lhqor30s-stroke" data-item-order="1000000000" data-item-id="docu_qp21lhqor30s" data-item-class="Icon Stroke Indexed" data-item-index="5" data-renderer-id="0" transform="translate(3.00048828125, 518)"><g id="docu_qp21lhqor30s-stroke" fill="none" stroke-linecap="round" stroke-linejoin="round" stroke-miterlimit="4" stroke="#A3A3A3" stroke-width="2"><g><path d="M 26 46L 42.5 46M 26 38L 26 28M 24 28L 28 28M 32 38L 32 30C 32 28.89543 32.895432 28 34 28C 35.104568 28 36 28.89543 36 30L 36 38M 32 34L 36 34M 40 28L 44 38M 44 28L 40 38M 51 57C 52.104568 57 53 56.104568 53 55L 53 22.950001C 53 16.350197 47.649803 11 41.049999 11L 17 11C 15.895431 11 15 11.895431 15 13L 15 55C 15 56.104568 15.895431 57 17 57ZM 43 11.16L 43 19C 43 20.104568 43.895432 21 45 21L 52.84 21"></path></g></g></g><g id="g-root-tx_benefcio_141ri51qoob9g-stroke" data-item-order="1000000000" data-item-id="tx_benefcio_141ri51qoob9g" data-item-class="Label Stroke Indexed" data-item-index="5" data-renderer-id="0" transform="translate(63.00048828125, 518)"></g><g id="g-root-line_4gpkt1qor400-stroke" data-item-order="1000000000" data-item-id="line_4gpkt1qor400" data-item-class="Icon Stroke Indexed" data-item-index="105" data-renderer-id="0" transform="translate(303.00048828125, 518)"><g id="line_4gpkt1qor400-stroke" fill="none" stroke-linecap="round" stroke-linejoin="round" stroke-miterlimit="4" stroke="#A3A3A3" stroke-width="2"><g><path d="M 11 33.438L 25.498001 25.438C 27.771118 24.340263 30.364349 24.100899 32.799999 24.764L 40.211998 27.236C 42.510612 27.872299 44.973053 27.197374 46.625999 25.478001L 57 13.5L 57 55.5C 57 56.052284 56.552284 56.5 56 56.5L 12 56.5C 11.447716 56.5 11 56.052284 11 55.5L 11 11.5M 11 45.5L 23.514 38.461998C 25.838638 37.27578 28.392372 36.606472 31 36.5L 36 36.5C 38.632065 36.414696 41.23243 35.89922 43.697998 34.973999L 57 29.483999M 11 55.562L 23.709999 46.773998C 25.89522 45.418518 28.429409 44.732304 31 44.799999L 36.024002 45.188C 38.666168 45.324795 41.31498 45.123158 43.905998 44.587997L 57 41.5"></path></g></g></g><g id="g-root-tx_investir_1lr63dhqoo9vy-stroke" data-item-order="1000000000" data-item-id="tx_investir_1lr63dhqoo9vy" data-item-class="Label Stroke" data-item-index="none" data-renderer-id="0" transform="translate(183.00048828125, 2)"></g><g id="g-root-tx_dependnc_1lt1imtqoo8w9-stroke" data-item-order="1000000000" data-item-id="tx_dependnc_1lt1imtqoo8w9" data-item-class="Label Stroke Indexed" data-item-index="103" data-renderer-id="0" transform="translate(363.00048828125, 350)"></g></g></g></svg>